<svg id="svg" version="1.1" xmlns="http://www.w3.org/2000/svg" xmlns:xlink="http://www.w3.org/1999/xlink" width="400" height="400" viewBox="0, 0, 400,400"><g id="svgg"><path id="path0" d="M183.000 61.094 C 155.549 67.387,153.133 106.971,179.642 116.136 C 204.113 124.597,225.225 94.739,210.857 71.989 C 205.585 63.641,193.133 58.771,183.000 61.094 M184.943 73.535 C 184.797 74.019,184.511 74.590,184.307 74.805 C 184.088 75.034,184.096 74.769,184.325 74.161 C 184.540 73.593,184.610 73.021,184.480 72.892 C 184.351 72.762,184.462 72.656,184.727 72.656 C 185.045 72.656,185.119 72.955,184.943 73.535 M178.324 73.537 C 177.913 73.767,177.192 74.410,176.722 74.966 C 176.252 75.522,175.381 76.499,174.787 77.137 C 174.192 77.775,173.263 79.264,172.722 80.447 C 172.181 81.629,171.675 82.409,171.599 82.179 C 171.305 81.298,173.050 78.161,174.959 76.139 C 176.056 74.977,176.953 73.850,176.953 73.634 C 176.954 73.419,177.430 73.215,178.012 73.181 C 178.958 73.126,178.991 73.163,178.324 73.537 M196.354 81.120 C 196.231 81.243,195.867 81.079,195.545 80.757 C 195.223 80.435,195.060 80.071,195.182 79.948 C 195.305 79.825,195.669 79.988,195.991 80.311 C 196.314 80.633,196.477 80.997,196.354 81.120 M171.834 83.517 C 172.080 83.978,172.072 84.418,171.811 84.787 C 171.486 85.245,171.452 85.223,171.631 84.668 C 171.752 84.292,171.699 83.984,171.514 83.984 C 171.329 83.984,171.076 83.721,170.952 83.398 C 170.634 82.568,171.380 82.669,171.834 83.517 M213.666 85.645 C 213.669 85.806,213.486 85.938,213.258 85.938 C 213.031 85.938,212.953 85.762,213.086 85.547 C 213.219 85.332,213.009 85.154,212.621 85.150 C 212.032 85.145,212.010 85.083,212.490 84.780 C 213.037 84.434,213.650 84.885,213.666 85.645 M205.078 92.787 C 205.078 93.251,203.964 92.901,203.762 92.374 C 203.575 91.888,203.675 91.855,204.306 92.192 C 204.731 92.420,205.078 92.687,205.078 92.787 M169.141 92.969 C 169.141 93.184,168.877 93.359,168.555 93.359 C 168.232 93.359,167.969 93.184,167.969 92.969 C 167.969 92.754,168.232 92.578,168.555 92.578 C 168.877 92.578,169.141 92.754,169.141 92.969 M180.605 93.542 C 180.726 93.858,180.657 94.219,180.452 94.346 C 180.246 94.473,180.078 94.493,180.078 94.391 C 180.078 94.288,179.971 93.926,179.841 93.587 C 179.711 93.247,179.780 92.969,179.995 92.969 C 180.209 92.969,180.484 93.227,180.605 93.542 M185.938 95.313 C 185.938 95.527,185.684 95.703,185.375 95.703 C 185.065 95.703,184.703 95.527,184.570 95.313 C 184.438 95.098,184.691 94.922,185.133 94.922 C 185.576 94.922,185.938 95.098,185.938 95.313 M207.422 101.220 C 207.422 101.924,207.331 101.973,206.817 101.547 C 206.335 101.146,206.315 100.981,206.720 100.724 C 207.417 100.282,207.422 100.286,207.422 101.220 M231.672 106.324 C 228.169 108.707,228.133 108.974,228.388 130.469 C 228.665 153.825,228.023 152.428,238.598 152.671 C 249.117 152.912,249.219 152.808,249.219 141.809 L 249.219 134.766 253.362 134.766 C 257.096 134.766,257.480 134.831,257.251 135.428 C 257.112 135.792,256.193 138.560,255.210 141.580 C 253.196 147.769,248.831 160.269,248.601 160.508 C 248.517 160.595,247.583 159.855,246.524 158.864 C 244.161 156.653,243.891 156.584,237.388 156.507 C 226.298 156.376,223.828 153.447,223.828 140.424 C 223.828 124.102,218.658 122.529,166.211 122.886 C 151.792 122.984,143.327 129.491,136.525 145.703 C 134.735 149.970,131.356 157.604,127.506 166.076 C 121.446 179.414,120.615 182.936,121.434 191.797 C 122.010 198.027,124.956 222.534,125.574 226.232 C 125.737 227.209,125.647 227.276,123.993 227.407 C 120.573 227.679,120.703 227.997,120.703 219.370 C 120.703 209.187,121.050 209.641,113.115 209.435 C 99.097 209.073,99.621 208.101,99.614 234.485 C 99.608 258.693,98.703 256.778,110.238 256.957 C 120.861 257.121,120.703 257.281,120.703 246.343 C 120.703 238.614,120.492 239.061,124.153 239.065 L 126.367 239.068 127.344 241.702 C 131.280 252.319,146.730 252.379,150.675 241.793 L 151.474 239.648 155.294 239.536 C 159.999 239.397,159.689 238.855,159.492 246.864 C 159.234 257.367,159.441 257.580,169.682 257.342 C 181.360 257.071,180.540 258.927,180.390 233.105 C 180.244 208.004,181.148 210.092,170.321 209.843 C 159.484 209.594,159.530 209.550,159.666 220.003 L 159.762 227.344 155.295 227.344 C 152.838 227.344,150.726 227.180,150.603 226.981 C 150.329 226.537,149.122 214.791,148.051 202.148 C 147.614 196.992,147.154 191.626,147.029 190.224 L 146.801 187.674 150.088 181.044 C 153.342 174.480,158.173 164.030,159.608 160.451 C 160.017 159.431,160.483 158.596,160.645 158.595 C 161.277 158.592,160.643 178.456,159.563 192.470 C 158.817 202.145,158.821 204.066,159.585 204.700 C 160.031 205.070,162.482 205.208,169.058 205.236 C 180.486 205.284,182.525 206.097,184.829 211.523 C 185.481 213.060,185.790 246.651,185.200 251.936 C 184.586 257.429,183.069 259.600,178.581 261.405 C 175.277 262.734,163.104 262.749,159.598 261.429 C 156.847 260.393,157.271 260.074,155.473 264.532 C 153.772 268.749,149.828 275.968,143.476 286.489 C 123.414 319.719,123.242 320.053,123.242 325.781 C 123.242 334.709,129.200 339.634,139.176 338.952 C 146.229 338.469,149.992 335.415,156.364 325.000 C 162.215 315.437,165.688 309.948,171.020 301.838 C 184.450 281.409,187.424 275.755,190.376 265.039 C 192.678 256.682,194.722 244.817,195.014 238.117 C 195.057 237.133,195.229 236.328,195.397 236.328 C 195.738 236.328,195.817 236.815,195.721 238.322 C 195.611 240.052,197.058 242.157,209.122 257.813 C 219.602 271.412,220.599 274.250,222.648 296.289 C 222.888 298.867,223.246 302.471,223.443 304.297 C 223.640 306.123,224.001 310.518,224.245 314.063 C 225.298 329.360,225.768 331.357,229.225 335.208 C 236.185 342.961,250.563 340.794,254.339 331.422 C 255.689 328.071,255.395 312.733,253.494 287.305 C 252.505 274.070,252.328 272.273,251.732 269.391 C 250.252 262.236,244.988 253.110,230.857 233.203 C 216.215 212.576,217.068 214.285,217.145 205.734 C 217.177 202.258,217.363 197.920,217.560 196.094 C 217.756 194.268,218.028 190.840,218.163 188.477 C 218.408 184.191,219.217 176.082,219.917 170.898 C 220.121 169.395,220.293 167.934,220.300 167.654 C 220.319 166.864,221.510 167.831,223.339 170.122 C 231.120 179.868,243.826 190.520,249.400 191.972 C 262.834 195.471,268.709 185.677,278.910 142.773 C 280.913 134.351,280.254 135.194,284.891 135.125 C 289.651 135.054,289.223 134.335,289.453 142.797 L 289.648 149.984 290.731 151.066 L 291.813 152.148 298.414 152.279 C 306.395 152.436,307.928 152.002,309.448 149.154 L 310.352 147.461 310.352 128.303 C 310.352 103.909,311.186 105.664,299.592 105.664 C 289.574 105.664,289.735 105.497,289.453 116.211 L 289.258 123.633 286.029 123.746 C 283.649 123.830,282.762 123.727,282.654 123.356 C 279.258 111.636,264.942 110.591,259.701 121.680 L 258.777 123.633 254.096 123.633 L 249.414 123.633 249.219 115.731 L 249.023 107.828 247.941 106.746 L 246.859 105.664 239.929 105.543 C 233.230 105.426,232.954 105.452,231.672 106.324 M239.453 114.063 C 239.453 114.277,239.189 114.453,238.867 114.453 C 238.545 114.453,238.281 114.277,238.281 114.063 C 238.281 113.848,238.545 113.672,238.867 113.672 C 239.189 113.672,239.453 113.848,239.453 114.063 M304.688 116.946 C 304.688 117.161,304.429 116.996,304.114 116.579 C 303.799 116.162,303.540 115.645,303.540 115.430 C 303.540 115.215,303.799 115.380,304.114 115.797 C 304.429 116.214,304.688 116.731,304.688 116.946 M303.510 117.285 C 303.505 117.996,303.431 118.052,303.125 117.578 C 302.636 116.821,302.636 116.406,303.125 116.406 C 303.340 116.406,303.513 116.802,303.510 117.285 M233.561 117.822 C 234.149 118.352,233.081 118.312,232.349 117.777 L 231.445 117.115 232.422 117.395 C 232.959 117.549,233.472 117.741,233.561 117.822 M278.638 119.824 C 278.241 120.941,278.089 121.118,277.723 120.891 C 277.531 120.773,277.670 120.331,278.032 119.908 C 278.841 118.964,278.950 118.948,278.638 119.824 M280.078 123.284 C 280.078 124.096,279.418 123.941,279.191 123.076 C 279.053 122.549,279.156 122.386,279.536 122.532 C 279.834 122.646,280.078 122.985,280.078 123.284 M298.481 123.550 C 298.162 123.869,298.047 123.825,298.047 123.385 C 298.047 122.609,298.572 122.084,298.766 122.666 C 298.849 122.913,298.720 123.311,298.481 123.550 M275.548 127.014 C 275.263 127.476,274.219 126.932,274.219 126.322 C 274.219 125.879,274.362 125.864,274.975 126.247 C 275.391 126.506,275.649 126.852,275.548 127.014 M299.219 127.218 C 299.219 127.714,299.141 127.712,298.633 127.204 C 298.311 126.882,298.047 126.523,298.047 126.407 C 298.047 126.291,298.311 126.298,298.633 126.421 C 298.955 126.545,299.219 126.904,299.219 127.218 M219.847 132.006 C 219.587 132.422,219.236 132.676,219.066 132.571 C 218.897 132.466,218.976 132.133,219.242 131.830 C 219.962 131.012,220.390 131.136,219.847 132.006 M234.642 133.104 C 234.162 133.584,234.054 133.596,234.119 133.163 C 234.269 132.172,234.886 131.417,235.078 131.991 C 235.171 132.270,234.975 132.771,234.642 133.104 M237.109 133.668 C 237.109 134.187,235.842 133.893,235.655 133.332 C 235.558 133.040,235.795 132.950,236.306 133.084 C 236.748 133.200,237.109 133.462,237.109 133.668 M305.469 134.720 C 305.469 134.910,305.117 135.157,304.688 135.269 C 303.920 135.470,303.655 135.148,304.167 134.635 C 304.546 134.256,305.469 134.316,305.469 134.720 M307.422 135.830 C 307.422 137.055,307.235 136.913,306.875 135.416 C 306.701 134.690,306.749 134.396,307.016 134.561 C 307.239 134.699,307.422 135.270,307.422 135.830 M305.244 136.278 C 304.831 136.680,304.423 136.948,304.339 136.873 C 304.093 136.655,305.134 135.547,305.585 135.547 C 305.811 135.547,305.658 135.876,305.244 136.278 M159.538 142.439 C 159.886 143.346,159.686 143.371,158.818 142.528 C 158.196 141.923,158.172 141.797,158.679 141.797 C 159.016 141.797,159.402 142.086,159.538 142.439 M263.755 145.489 C 263.623 145.705,263.467 145.673,263.380 145.413 C 263.298 145.167,262.978 145.063,262.670 145.181 C 262.362 145.299,262.109 145.216,262.109 144.996 C 262.109 144.403,263.002 144.214,263.525 144.697 C 263.775 144.928,263.879 145.284,263.755 145.489 M267.578 145.669 C 267.578 146.066,266.579 146.006,266.157 145.584 C 266.008 145.435,266.266 145.313,266.732 145.313 C 267.197 145.313,267.578 145.473,267.578 145.669 M174.490 146.983 C 174.587 147.672,174.532 147.731,174.226 147.266 C 173.789 146.602,173.684 145.429,174.099 145.843 C 174.247 145.992,174.424 146.505,174.490 146.983 M259.104 146.758 C 258.847 146.850,258.742 147.222,258.868 147.584 C 259.053 148.110,258.997 148.147,258.590 147.770 C 258.171 147.383,258.171 147.189,258.588 146.687 C 258.867 146.350,259.202 146.191,259.333 146.333 C 259.464 146.475,259.360 146.667,259.104 146.758 M241.148 148.145 C 240.827 148.673,240.437 148.447,239.985 147.473 C 239.545 146.524,239.550 146.521,240.433 147.183 C 240.924 147.551,241.246 147.983,241.148 148.145 M219.531 151.735 C 219.531 152.044,219.374 152.395,219.182 152.514 C 218.779 152.762,218.295 151.758,218.647 151.405 C 219.066 150.986,219.531 151.160,219.531 151.735 M263.825 152.180 C 264.148 153.020,264.128 153.125,263.649 153.125 C 263.421 153.125,263.344 152.949,263.477 152.734 C 263.609 152.520,263.532 152.344,263.304 152.344 C 263.077 152.344,262.891 152.168,262.891 151.953 C 262.891 151.335,263.564 151.499,263.825 152.180 M184.138 156.087 C 184.453 156.907,184.438 157.031,184.030 157.031 C 183.840 157.031,183.593 156.680,183.481 156.250 C 183.239 155.328,183.794 155.190,184.138 156.087 M185.457 156.567 C 185.692 157.270,184.884 157.123,184.612 156.413 C 184.466 156.032,184.553 155.854,184.839 155.949 C 185.094 156.034,185.372 156.312,185.457 156.567 M233.813 165.050 C 233.258 165.648,232.675 165.999,232.516 165.828 C 232.357 165.658,232.458 165.436,232.740 165.335 C 233.023 165.235,233.425 164.703,233.634 164.153 C 233.895 163.465,234.139 163.280,234.417 163.558 C 234.696 163.836,234.508 164.301,233.813 165.050 M246.231 165.831 C 246.111 166.145,245.862 166.309,245.679 166.196 C 245.496 166.083,245.445 165.734,245.566 165.419 C 245.686 165.105,245.935 164.941,246.118 165.054 C 246.301 165.167,246.352 165.516,246.231 165.831 M264.871 166.355 C 264.656 166.756,264.606 167.234,264.760 167.416 C 264.913 167.599,264.712 167.496,264.313 167.189 C 263.883 166.858,263.764 166.571,264.022 166.485 C 264.262 166.405,264.359 166.179,264.237 165.982 C 264.116 165.786,264.297 165.625,264.639 165.625 C 265.126 165.625,265.177 165.784,264.871 166.355 M261.814 171.289 C 261.917 171.826,261.850 172.266,261.665 172.266 C 261.480 172.266,261.328 172.104,261.328 171.907 C 261.328 171.710,261.221 171.270,261.091 170.930 C 260.961 170.591,261.028 170.313,261.241 170.313 C 261.454 170.313,261.712 170.752,261.814 171.289 M263.898 171.264 C 264.207 171.573,264.326 171.896,264.163 171.983 C 264.000 172.070,263.560 171.818,263.184 171.422 C 262.386 170.583,263.066 170.432,263.898 171.264 M239.844 176.892 C 239.844 177.047,239.395 177.211,238.846 177.256 C 238.297 177.301,237.932 177.202,238.035 177.036 C 238.276 176.646,239.844 176.522,239.844 176.892 M162.891 180.469 C 162.891 180.684,162.637 180.859,162.328 180.859 C 162.018 180.859,161.656 180.684,161.523 180.469 C 161.391 180.254,161.644 180.078,162.086 180.078 C 162.529 180.078,162.891 180.254,162.891 180.469 M258.348 181.331 C 258.081 181.764,257.031 181.719,257.031 181.274 C 257.031 181.073,257.371 180.933,257.785 180.965 C 258.200 180.996,258.454 181.161,258.348 181.331 M144.922 181.813 C 144.922 182.683,144.310 182.856,144.246 182.004 C 144.215 181.589,144.354 181.250,144.556 181.250 C 144.757 181.250,144.922 181.503,144.922 181.813 M136.748 185.264 C 136.700 185.731,136.164 185.640,135.996 185.137 C 135.910 184.879,136.051 184.738,136.309 184.824 C 136.566 184.910,136.764 185.108,136.748 185.264 M248.047 185.526 C 248.047 185.702,247.607 185.930,247.070 186.033 C 246.186 186.202,245.815 185.956,246.270 185.501 C 246.591 185.180,248.047 185.200,248.047 185.526 M136.675 192.019 C 136.914 191.872,137.109 191.927,137.109 192.141 C 137.109 192.356,136.914 192.653,136.675 192.800 C 136.240 193.069,135.559 192.337,135.559 191.602 C 135.559 191.387,135.712 191.453,135.900 191.749 C 136.087 192.045,136.436 192.167,136.675 192.019 M133.594 193.359 C 133.594 193.574,133.418 193.750,133.203 193.750 C 132.988 193.750,132.813 194.014,132.813 194.336 C 132.813 194.658,132.637 194.922,132.422 194.922 C 131.910 194.922,131.929 194.684,132.516 193.745 C 133.033 192.916,133.594 192.716,133.594 193.359 M206.958 194.507 C 207.056 194.800,206.909 194.946,206.616 194.849 C 206.334 194.755,206.027 194.447,205.933 194.165 C 205.835 193.872,205.981 193.726,206.274 193.823 C 206.556 193.917,206.864 194.225,206.958 194.507 M178.516 201.172 C 178.516 201.387,178.154 201.563,177.711 201.563 C 177.269 201.563,177.016 201.387,177.148 201.172 C 177.281 200.957,177.643 200.781,177.953 200.781 C 178.262 200.781,178.516 200.957,178.516 201.172 M184.375 207.518 C 184.375 207.735,184.116 207.693,183.789 207.422 C 183.467 207.154,183.203 206.760,183.203 206.545 C 183.203 206.327,183.462 206.369,183.789 206.641 C 184.111 206.908,184.375 207.303,184.375 207.518 M194.461 208.917 C 194.531 209.398,194.376 209.766,194.103 209.766 C 193.837 209.766,193.731 209.655,193.866 209.519 C 194.002 209.383,193.926 208.923,193.698 208.497 C 193.375 207.892,193.399 207.760,193.810 207.896 C 194.099 207.991,194.392 208.451,194.461 208.917 M173.438 211.177 C 173.438 211.260,172.812 211.328,172.047 211.328 C 171.283 211.328,170.748 211.182,170.858 211.003 C 171.048 210.695,173.438 210.856,173.438 211.177 M193.983 214.123 C 194.147 214.389,194.091 214.468,193.844 214.316 C 193.614 214.174,193.347 214.278,193.251 214.548 C 193.155 214.818,192.946 214.919,192.788 214.772 C 192.450 214.459,192.859 213.672,193.359 213.672 C 193.549 213.672,193.829 213.875,193.983 214.123 M136.719 214.696 C 136.719 215.215,136.613 215.242,136.133 214.844 C 135.811 214.576,135.547 214.291,135.547 214.210 C 135.547 214.129,135.811 214.063,136.133 214.063 C 136.455 214.063,136.719 214.348,136.719 214.696 M109.766 216.323 C 109.766 216.492,109.414 216.657,108.984 216.689 C 108.555 216.722,108.203 216.583,108.203 216.382 C 108.203 216.180,108.555 216.016,108.984 216.016 C 109.414 216.016,109.766 216.154,109.766 216.323 M199.994 217.262 C 199.997 216.981,200.198 216.873,200.441 217.023 C 200.742 217.209,200.679 217.409,200.242 217.653 C 199.497 218.071,198.701 217.709,199.066 217.119 C 199.227 216.857,199.436 216.902,199.652 217.243 C 199.920 217.666,199.989 217.669,199.994 217.262 M147.317 219.922 C 147.744 219.922,147.995 220.081,147.874 220.276 C 147.457 220.951,146.092 220.253,146.139 219.388 C 146.175 218.728,146.221 218.697,146.363 219.238 C 146.461 219.614,146.891 219.922,147.317 219.922 M204.111 219.951 C 204.252 220.397,204.264 220.866,204.137 220.993 C 204.010 221.120,203.906 220.947,203.906 220.609 C 203.906 220.187,203.662 220.059,203.125 220.199 C 202.282 220.420,202.027 219.724,202.832 219.399 C 203.688 219.054,203.848 219.123,204.111 219.951 M217.021 219.803 C 216.968 220.167,216.733 220.529,216.501 220.607 C 216.247 220.691,216.161 220.426,216.287 219.944 C 216.539 218.980,217.159 218.861,217.021 219.803 M167.182 223.340 C 167.164 224.196,166.418 224.764,166.412 223.926 C 166.409 223.442,166.582 223.047,166.797 223.047 C 167.012 223.047,167.185 223.179,167.182 223.340 M210.156 223.340 C 210.156 223.501,209.716 223.658,209.179 223.689 C 208.642 223.720,208.203 223.588,208.203 223.396 C 208.203 223.204,208.643 223.047,209.180 223.047 C 209.717 223.047,210.156 223.179,210.156 223.340 M171.875 223.828 C 172.349 224.134,172.293 224.208,171.582 224.213 C 171.099 224.216,170.703 224.043,170.703 223.828 C 170.703 223.339,171.118 223.339,171.875 223.828 M131.934 226.009 C 131.561 226.381,130.815 225.778,131.092 225.330 C 131.257 225.063,131.476 225.070,131.756 225.350 C 131.986 225.580,132.066 225.877,131.934 226.009 M205.994 235.857 C 205.870 236.331,205.603 236.719,205.400 236.719 C 205.198 236.719,205.103 236.587,205.190 236.426 C 205.277 236.265,205.467 235.800,205.613 235.393 C 205.969 234.398,206.277 234.773,205.994 235.857 M208.203 236.328 C 208.203 236.543,208.130 236.719,208.040 236.719 C 207.950 236.719,207.560 236.840,207.174 236.988 C 206.546 237.229,206.532 237.189,207.044 236.613 C 207.697 235.878,208.203 235.753,208.203 236.328 M143.131 242.439 C 143.504 243.409,143.093 243.541,142.596 242.612 C 142.356 242.163,142.323 241.797,142.523 241.797 C 142.722 241.797,142.996 242.086,143.131 242.439 M165.430 242.969 C 165.562 243.184,165.407 243.359,165.085 243.359 C 164.763 243.359,164.391 243.184,164.258 242.969 C 164.125 242.754,164.280 242.578,164.602 242.578 C 164.925 242.578,165.297 242.754,165.430 242.969 M165.728 244.436 C 165.512 244.999,164.775 244.911,164.571 244.298 C 164.501 244.088,164.778 243.917,165.185 243.917 C 165.641 243.917,165.850 244.117,165.728 244.436 M235.352 248.953 C 235.968 249.122,235.933 249.152,235.187 249.096 C 234.667 249.056,234.170 248.760,234.083 248.438 C 233.978 248.050,234.034 248.002,234.248 248.295 C 234.425 248.538,234.922 248.834,235.352 248.953 M172.920 277.991 C 172.779 278.133,172.859 278.484,173.098 278.773 C 173.395 279.131,173.401 279.297,173.118 279.297 C 172.889 279.297,172.594 279.121,172.461 278.906 C 172.211 278.501,172.524 277.734,172.940 277.734 C 173.070 277.734,173.061 277.850,172.920 277.991 M167.578 278.981 C 167.578 279.494,166.690 279.173,166.496 278.589 C 166.401 278.303,166.579 278.216,166.960 278.362 C 167.300 278.492,167.578 278.771,167.578 278.981 M155.469 283.638 C 155.469 285.183,153.387 287.575,152.976 286.503 C 152.848 286.170,152.886 285.985,153.060 286.093 C 153.528 286.382,154.688 284.877,154.688 283.980 C 154.688 283.553,154.863 283.203,155.078 283.203 C 155.293 283.203,155.469 283.399,155.469 283.638 M239.771 284.969 C 239.419 285.320,238.600 284.417,238.871 283.978 C 239.095 283.615,239.264 283.661,239.543 284.159 C 239.748 284.525,239.850 284.889,239.771 284.969 M242.489 284.058 C 242.404 284.313,242.125 284.591,241.870 284.676 C 241.584 284.771,241.497 284.593,241.643 284.212 C 241.916 283.502,242.723 283.355,242.489 284.058 M153.125 288.261 C 153.125 288.464,152.248 289.789,151.177 291.205 C 150.105 292.620,149.270 293.970,149.321 294.204 C 149.372 294.438,149.176 294.716,148.885 294.822 C 147.819 295.210,150.035 291.148,151.602 289.844 C 151.731 289.736,152.044 289.253,152.299 288.770 C 152.785 287.847,153.125 287.637,153.125 288.261 M246.484 289.258 C 246.484 289.580,246.309 289.844,246.094 289.844 C 245.879 289.844,245.703 289.580,245.703 289.258 C 245.703 288.936,245.879 288.672,246.094 288.672 C 246.309 288.672,246.484 288.936,246.484 289.258 M246.549 290.577 C 246.133 290.841,246.157 290.956,246.672 291.154 C 247.451 291.453,247.090 292.190,246.168 292.182 C 245.657 292.177,245.626 292.101,246.029 291.845 C 246.439 291.585,246.399 291.457,245.844 291.244 C 245.116 290.965,245.717 290.246,246.680 290.246 C 246.895 290.246,246.836 290.395,246.549 290.577 M226.716 291.634 C 227.083 292.589,227.003 292.684,226.367 292.048 C 225.703 291.384,225.619 291.016,226.130 291.016 C 226.322 291.016,226.586 291.294,226.716 291.634 M246.689 298.748 C 246.577 299.042,246.484 299.466,246.484 299.689 C 246.484 299.935,246.253 299.904,245.898 299.609 C 245.069 298.921,245.172 298.214,246.103 298.214 C 246.612 298.214,246.821 298.405,246.689 298.748 M141.707 300.854 C 141.622 301.110,141.344 301.388,141.089 301.473 C 140.803 301.568,140.716 301.390,140.862 301.009 C 141.134 300.299,141.942 300.151,141.707 300.854 M248.275 303.906 C 248.579 303.906,248.828 304.082,248.828 304.297 C 248.828 304.512,248.688 304.688,248.516 304.688 C 248.053 304.688,247.261 303.812,247.296 303.340 C 247.313 303.114,247.416 303.149,247.524 303.418 C 247.633 303.687,247.970 303.906,248.275 303.906 M251.172 305.055 C 251.172 305.934,250.558 306.446,250.199 305.866 C 250.064 305.647,250.159 305.469,250.409 305.469 C 250.660 305.469,250.764 305.205,250.640 304.883 C 250.516 304.561,250.585 304.297,250.794 304.297 C 251.002 304.297,251.172 304.638,251.172 305.055 M139.063 306.149 C 138.740 306.274,138.247 306.656,137.967 306.997 C 137.534 307.523,137.522 307.484,137.883 306.738 C 138.117 306.255,138.610 305.873,138.979 305.890 C 139.522 305.915,139.537 305.964,139.063 306.149 M154.297 307.617 C 154.021 307.950,153.707 308.134,153.600 308.027 C 153.492 307.919,153.630 307.559,153.906 307.227 C 154.182 306.894,154.496 306.710,154.604 306.817 C 154.711 306.924,154.573 307.285,154.297 307.617 M150.044 310.659 C 149.725 310.978,149.609 310.934,149.609 310.495 C 149.609 309.718,150.135 309.193,150.329 309.775 C 150.411 310.022,150.283 310.420,150.044 310.659 M243.501 314.258 C 243.377 314.580,243.119 314.844,242.927 314.844 C 242.735 314.844,242.578 314.580,242.578 314.258 C 242.578 313.936,242.836 313.672,243.152 313.672 C 243.501 313.672,243.638 313.901,243.501 314.258 M132.924 318.211 C 133.057 318.344,132.923 318.695,132.626 318.992 C 131.934 319.685,131.407 319.697,131.980 319.007 C 132.219 318.719,132.299 318.367,132.158 318.226 C 132.017 318.084,132.077 317.969,132.292 317.969 C 132.507 317.969,132.791 318.078,132.924 318.211 M142.188 320.355 C 142.688 320.716,142.678 320.746,142.115 320.567 C 141.753 320.451,141.371 320.566,141.267 320.823 C 141.163 321.079,141.063 320.981,141.046 320.605 C 141.011 319.824,141.347 319.751,142.188 320.355 M248.324 321.875 C 248.212 322.304,248.279 322.754,248.474 322.874 C 248.975 323.184,248.914 323.828,248.383 323.828 C 247.910 323.828,246.908 322.688,246.887 322.126 C 246.881 321.942,247.158 321.900,247.504 322.033 C 247.955 322.206,248.069 322.107,247.907 321.684 C 247.783 321.359,247.872 321.094,248.105 321.094 C 248.338 321.094,248.437 321.445,248.324 321.875 M128.336 326.537 C 128.195 326.766,127.815 326.953,127.493 326.953 C 127.171 326.953,127.017 326.774,127.152 326.556 C 127.287 326.338,127.561 326.260,127.761 326.384 C 127.961 326.507,128.125 326.393,128.125 326.130 C 128.125 325.866,128.230 325.757,128.359 325.885 C 128.488 326.014,128.478 326.307,128.336 326.537 M237.634 332.939 C 237.775 332.798,237.891 332.887,237.891 333.138 C 237.891 333.661,237.796 333.683,236.946 333.357 C 236.606 333.226,236.328 332.941,236.328 332.723 C 236.328 332.473,236.523 332.488,236.852 332.761 C 237.141 333.001,237.492 333.081,237.634 332.939 " stroke="none" fill="#222223" fill-rule="evenodd"></path><path id="path1" d="M228.297 177.382 C 227.959 177.929,228.811 178.125,229.246 177.600 C 229.570 177.210,229.529 177.083,229.078 177.083 C 228.750 177.083,228.398 177.218,228.297 177.382 " stroke="none" fill="#949493" fill-rule="evenodd"></path><path id="path2" d="M249.309 140.625 C 249.309 141.377,249.390 141.685,249.488 141.309 C 249.586 140.933,249.586 140.317,249.488 139.941 C 249.390 139.565,249.309 139.873,249.309 140.625 M228.261 143.750 C 228.261 145.576,228.329 146.323,228.411 145.410 C 228.493 144.497,228.493 143.003,228.411 142.090 C 228.329 141.177,228.261 141.924,228.261 143.750 M160.500 160.242 C 160.680 161.326,160.735 161.381,160.858 160.599 C 160.938 160.091,160.843 159.514,160.646 159.318 C 160.429 159.101,160.372 159.465,160.500 160.242 M99.340 237.305 C 99.342 238.594,99.415 239.074,99.502 238.372 C 99.589 237.670,99.587 236.615,99.498 236.028 C 99.409 235.441,99.338 236.016,99.340 237.305 M99.365 243.945 C 99.366 246.309,99.430 247.225,99.508 245.982 C 99.586 244.739,99.585 242.805,99.506 241.685 C 99.428 240.565,99.364 241.582,99.365 243.945 M120.824 242.773 C 120.826 244.062,120.899 244.543,120.986 243.841 C 121.073 243.139,121.071 242.084,120.982 241.497 C 120.893 240.910,120.822 241.484,120.824 242.773 M180.559 251.563 C 180.559 252.314,180.640 252.622,180.738 252.246 C 180.836 251.870,180.836 251.255,180.738 250.879 C 180.640 250.503,180.559 250.811,180.559 251.563 M154.370 285.140 C 153.900 285.776,153.516 286.426,153.516 286.584 C 153.516 286.741,153.955 286.275,154.492 285.547 C 155.029 284.819,155.469 284.169,155.469 284.104 C 155.469 283.785,155.151 284.084,154.370 285.140 " stroke="none" fill="#605f5e" fill-rule="evenodd"></path><path id="path3" d="M169.318 68.457 L 167.773 70.117 169.434 68.573 C 170.978 67.137,171.273 66.797,170.978 66.797 C 170.914 66.797,170.167 67.544,169.318 68.457 M174.580 76.453 C 174.059 77.037,173.913 77.303,174.255 77.042 C 174.597 76.782,174.992 76.656,175.134 76.761 C 175.275 76.867,175.304 76.837,175.199 76.696 C 175.093 76.555,175.203 76.203,175.442 75.915 C 176.257 74.933,175.531 75.386,174.580 76.453 M160.645 88.086 C 160.650 88.945,160.730 89.251,160.823 88.765 C 160.917 88.279,160.913 87.576,160.815 87.202 C 160.717 86.829,160.641 87.227,160.645 88.086 M168.945 109.766 C 169.784 110.625,170.559 111.328,170.666 111.328 C 170.774 111.328,170.175 110.625,169.336 109.766 C 168.497 108.906,167.722 108.203,167.615 108.203 C 167.507 108.203,168.106 108.906,168.945 109.766 M249.366 113.281 C 249.366 115.752,249.430 116.763,249.507 115.527 C 249.585 114.292,249.585 112.271,249.507 111.035 C 249.430 109.800,249.366 110.811,249.366 113.281 M310.683 114.844 C 310.683 116.670,310.751 117.417,310.833 116.504 C 310.915 115.591,310.915 114.097,310.833 113.184 C 310.751 112.271,310.683 113.018,310.683 114.844 M302.740 116.699 C 302.758 117.555,303.504 118.124,303.510 117.285 C 303.513 116.802,303.340 116.406,303.125 116.406 C 302.910 116.406,302.737 116.538,302.740 116.699 M310.688 121.875 C 310.688 123.916,310.754 124.751,310.834 123.730 C 310.914 122.710,310.914 121.040,310.834 120.020 C 310.754 118.999,310.688 119.834,310.688 121.875 M249.325 120.703 C 249.325 121.670,249.401 122.065,249.494 121.582 C 249.588 121.099,249.588 120.308,249.494 119.824 C 249.401 119.341,249.325 119.736,249.325 120.703 M278.239 119.917 C 278.128 120.345,277.853 120.581,277.630 120.443 C 277.392 120.296,277.340 120.381,277.506 120.649 C 277.661 120.901,277.931 121.018,278.105 120.911 C 278.468 120.687,278.933 119.141,278.638 119.141 C 278.530 119.141,278.351 119.490,278.239 119.917 M279.191 123.076 C 279.422 123.957,279.948 124.084,279.948 123.259 C 279.948 122.946,279.733 122.608,279.471 122.507 C 279.163 122.389,279.064 122.589,279.191 123.076 M171.777 122.932 C 172.261 123.025,173.052 123.025,173.535 122.932 C 174.019 122.839,173.623 122.763,172.656 122.763 C 171.689 122.763,171.294 122.839,171.777 122.932 M202.056 123.327 C 202.650 123.417,203.529 123.415,204.009 123.322 C 204.490 123.229,204.004 123.156,202.930 123.159 C 201.855 123.162,201.462 123.237,202.056 123.327 M228.285 131.445 C 228.284 135.098,228.343 136.644,228.415 134.882 C 228.488 133.121,228.488 130.132,228.416 128.242 C 228.344 126.351,228.285 127.793,228.285 131.445 M234.345 132.129 C 234.009 133.227,234.099 133.594,234.602 133.177 C 235.244 132.644,235.332 132.031,234.766 132.031 C 234.551 132.031,234.362 132.075,234.345 132.129 M304.167 134.635 C 303.671 135.131,303.907 135.642,304.430 135.207 C 304.719 134.968,305.070 134.888,305.212 135.029 C 305.353 135.171,305.469 135.081,305.469 134.831 C 305.469 134.340,304.593 134.209,304.167 134.635 M223.919 136.719 C 223.919 137.471,223.999 137.778,224.097 137.402 C 224.196 137.026,224.196 136.411,224.097 136.035 C 223.999 135.659,223.919 135.967,223.919 136.719 M223.962 141.992 C 223.963 143.711,224.032 144.365,224.115 143.447 C 224.197 142.528,224.196 141.122,224.112 140.322 C 224.028 139.522,223.961 140.273,223.962 141.992 M262.498 144.863 C 262.010 145.386,262.021 145.430,262.585 145.213 C 262.940 145.077,263.298 145.167,263.380 145.413 C 263.467 145.673,263.623 145.705,263.755 145.489 C 264.194 144.766,263.099 144.220,262.498 144.863 M223.919 146.484 C 223.919 147.236,223.999 147.544,224.097 147.168 C 224.196 146.792,224.196 146.177,224.097 145.801 C 223.999 145.425,223.919 145.732,223.919 146.484 M301.270 152.613 C 301.646 152.711,302.261 152.711,302.637 152.613 C 303.013 152.515,302.705 152.434,301.953 152.434 C 301.201 152.434,300.894 152.515,301.270 152.613 M183.984 156.445 C 183.648 156.850,183.634 157.031,183.937 157.031 C 184.178 157.031,184.378 156.812,184.381 156.543 C 184.385 156.212,184.504 156.240,184.750 156.629 C 184.950 156.945,185.229 157.089,185.369 156.948 C 185.671 156.647,185.252 155.859,184.790 155.859 C 184.615 155.859,184.252 156.123,183.984 156.445 M234.473 156.537 C 235.493 156.618,237.163 156.618,238.184 156.537 C 239.204 156.457,238.369 156.391,236.328 156.391 C 234.287 156.391,233.452 156.457,234.473 156.537 M245.313 157.544 C 245.313 157.611,245.884 158.183,246.582 158.814 L 247.852 159.961 246.704 158.691 C 245.635 157.508,245.313 157.242,245.313 157.544 M233.618 164.194 C 233.400 164.766,233.032 165.234,232.799 165.234 C 232.566 165.234,232.490 165.419,232.629 165.644 C 232.782 165.891,233.268 165.638,233.852 165.008 C 234.520 164.288,234.696 163.836,234.417 163.558 C 234.139 163.280,233.890 163.478,233.618 164.194 M160.681 166.992 C 160.682 168.711,160.751 169.365,160.833 168.447 C 160.916 167.528,160.915 166.122,160.831 165.322 C 160.747 164.522,160.679 165.273,160.681 166.992 M245.566 165.419 C 245.445 165.734,245.496 166.083,245.679 166.196 C 245.862 166.309,246.111 166.145,246.231 165.831 C 246.352 165.516,246.301 165.167,246.118 165.054 C 245.935 164.941,245.686 165.105,245.566 165.419 M221.840 168.684 C 222.051 169.078,222.530 169.649,222.905 169.954 C 223.327 170.297,223.233 170.024,222.657 169.238 C 221.631 167.837,221.247 167.576,221.840 168.684 M219.231 176.172 C 219.231 176.924,219.312 177.231,219.410 176.855 C 219.508 176.479,219.508 175.864,219.410 175.488 C 219.312 175.112,219.231 175.420,219.231 176.172 M229.018 176.399 C 229.387 176.846,229.601 177.329,229.493 177.473 C 229.385 177.617,229.417 177.644,229.563 177.534 C 229.970 177.226,232.037 179.363,231.762 179.808 C 231.629 180.023,231.708 180.083,231.938 179.941 C 232.167 179.799,232.444 179.903,232.553 180.173 C 232.662 180.443,232.765 180.482,232.782 180.260 C 232.799 180.038,231.808 178.895,230.579 177.721 C 229.351 176.547,228.648 175.952,229.018 176.399 M160.247 178.516 C 160.247 179.268,160.327 179.575,160.426 179.199 C 160.524 178.823,160.524 178.208,160.426 177.832 C 160.327 177.456,160.247 177.764,160.247 178.516 M159.856 186.328 C 159.856 187.080,159.937 187.388,160.035 187.012 C 160.133 186.636,160.133 186.021,160.035 185.645 C 159.937 185.269,159.856 185.576,159.856 186.328 M246.270 185.501 C 245.791 185.980,246.183 186.308,246.824 185.965 C 247.225 185.750,247.665 185.685,247.800 185.821 C 247.936 185.957,248.047 185.874,248.047 185.636 C 248.047 185.229,246.648 185.123,246.270 185.501 M146.981 188.672 C 146.981 189.639,147.058 190.034,147.151 189.551 C 147.244 189.067,147.244 188.276,147.151 187.793 C 147.058 187.310,146.981 187.705,146.981 188.672 M159.466 191.797 C 159.466 192.549,159.546 192.856,159.644 192.480 C 159.743 192.104,159.743 191.489,159.644 191.113 C 159.546 190.737,159.466 191.045,159.466 191.797 M159.096 195.898 C 159.099 196.973,159.175 197.366,159.265 196.772 C 159.354 196.178,159.352 195.299,159.259 194.819 C 159.167 194.338,159.093 194.824,159.096 195.898 M217.294 199.609 C 217.294 200.576,217.370 200.972,217.463 200.488 C 217.556 200.005,217.556 199.214,217.463 198.730 C 217.370 198.247,217.294 198.643,217.294 199.609 M148.145 203.320 C 148.150 204.180,148.230 204.485,148.323 203.999 C 148.417 203.513,148.413 202.810,148.315 202.437 C 148.217 202.063,148.141 202.461,148.145 203.320 M159.498 204.942 C 160.188 205.760,161.937 206.529,161.501 205.823 C 161.381 205.628,161.087 205.469,160.848 205.469 C 160.609 205.469,160.048 205.161,159.601 204.785 C 158.796 204.108,158.795 204.109,159.498 204.942 M163.384 205.358 C 163.978 205.448,164.857 205.446,165.337 205.353 C 165.818 205.260,165.332 205.187,164.258 205.190 C 163.184 205.193,162.791 205.269,163.384 205.358 M183.203 206.545 C 183.203 206.760,183.467 207.154,183.789 207.422 C 184.116 207.693,184.375 207.735,184.375 207.518 C 184.375 207.303,184.111 206.908,183.789 206.641 C 183.462 206.369,183.203 206.327,183.203 206.545 M120.865 219.922 C 120.865 223.896,120.923 225.522,120.994 223.535 C 121.065 221.548,121.065 218.296,120.994 216.309 C 120.923 214.321,120.865 215.947,120.865 219.922 M159.466 214.063 C 159.466 214.814,159.546 215.122,159.644 214.746 C 159.743 214.370,159.743 213.755,159.644 213.379 C 159.546 213.003,159.466 213.311,159.466 214.063 M192.790 214.036 C 192.667 214.236,192.744 214.510,192.962 214.644 C 193.181 214.779,193.359 214.693,193.359 214.453 C 193.359 214.213,193.562 214.142,193.810 214.295 C 194.090 214.468,194.155 214.402,193.983 214.123 C 193.646 213.579,193.097 213.539,192.790 214.036 M135.547 214.210 C 135.547 214.291,135.811 214.576,136.133 214.844 C 136.613 215.242,136.719 215.215,136.719 214.696 C 136.719 214.348,136.455 214.063,136.133 214.063 C 135.811 214.063,135.547 214.129,135.547 214.210 M185.309 220.313 C 185.309 223.213,185.371 224.399,185.446 222.949 C 185.521 221.499,185.521 219.126,185.446 217.676 C 185.371 216.226,185.309 217.412,185.309 220.313 M200.000 217.206 C 200.000 217.479,199.725 217.557,199.316 217.401 C 198.798 217.204,198.742 217.251,199.083 217.595 C 199.388 217.902,199.752 217.928,200.208 217.673 C 200.663 217.418,200.739 217.207,200.441 217.023 C 200.198 216.873,200.000 216.956,200.000 217.206 M159.375 223.210 C 159.375 225.787,159.229 226.947,158.887 227.085 C 158.595 227.203,158.674 227.294,159.082 227.313 C 159.690 227.340,159.766 226.909,159.766 223.438 C 159.766 221.289,159.678 219.531,159.570 219.531 C 159.463 219.531,159.375 221.187,159.375 223.210 M208.203 223.197 C 208.203 223.279,208.643 223.430,209.180 223.533 C 209.717 223.636,210.156 223.568,210.156 223.383 C 210.156 223.198,209.717 223.047,209.180 223.047 C 208.643 223.047,208.203 223.114,208.203 223.197 M207.044 236.613 C 206.532 237.189,206.546 237.229,207.174 236.988 C 207.560 236.840,207.950 236.719,208.040 236.719 C 208.130 236.719,208.203 236.543,208.203 236.328 C 208.203 235.753,207.697 235.878,207.044 236.613 M195.040 238.245 C 195.002 239.711,195.051 239.848,195.306 238.995 C 195.478 238.421,195.708 237.806,195.815 237.628 C 195.923 237.450,195.804 237.113,195.549 236.878 C 195.198 236.554,195.075 236.885,195.040 238.245 M122.369 239.343 C 122.962 239.433,123.841 239.430,124.322 239.337 C 124.802 239.245,124.316 239.171,123.242 239.174 C 122.168 239.177,121.775 239.253,122.369 239.343 M185.284 247.852 C 185.286 249.355,185.357 249.923,185.441 249.112 C 185.526 248.302,185.524 247.071,185.438 246.378 C 185.352 245.685,185.283 246.348,185.284 247.852 M234.083 248.438 C 234.170 248.760,234.667 249.056,235.187 249.096 C 235.933 249.152,235.968 249.122,235.352 248.953 C 234.922 248.834,234.425 248.538,234.248 248.295 C 234.034 248.002,233.978 248.050,234.083 248.438 M137.994 249.890 C 138.587 249.979,139.466 249.977,139.947 249.884 C 140.427 249.792,139.941 249.718,138.867 249.721 C 137.793 249.724,137.400 249.800,137.994 249.890 M104.972 257.313 C 105.665 257.399,106.896 257.401,107.706 257.316 C 108.517 257.232,107.949 257.161,106.445 257.159 C 104.941 257.158,104.278 257.227,104.972 257.313 M111.440 257.320 C 112.683 257.398,114.617 257.397,115.737 257.319 C 116.857 257.240,115.840 257.176,113.477 257.177 C 111.113 257.178,110.197 257.243,111.440 257.320 M163.969 262.386 C 164.455 262.479,165.158 262.476,165.532 262.378 C 165.905 262.280,165.508 262.204,164.648 262.208 C 163.789 262.212,163.483 262.292,163.969 262.386 M253.242 283.594 C 253.242 284.775,253.315 285.259,253.405 284.668 C 253.494 284.077,253.494 283.110,253.405 282.520 C 253.315 281.929,253.242 282.412,253.242 283.594 M238.840 284.028 C 238.558 284.485,239.476 285.279,239.832 284.886 C 239.946 284.761,239.818 284.580,239.548 284.483 C 239.278 284.387,239.157 284.148,239.278 283.951 C 239.400 283.755,239.411 283.594,239.304 283.594 C 239.196 283.594,238.988 283.789,238.840 284.028 M150.866 290.634 C 150.409 291.367,150.430 291.388,151.163 290.930 C 151.950 290.439,152.220 289.844,151.656 289.844 C 151.493 289.844,151.138 290.199,150.866 290.634 M245.714 290.610 C 245.223 290.920,245.240 291.012,245.829 291.238 C 246.208 291.384,246.628 291.393,246.762 291.259 C 246.896 291.125,246.756 291.013,246.452 291.010 C 245.996 291.005,246.002 290.937,246.484 290.625 C 246.807 290.417,246.895 290.246,246.680 290.246 C 246.465 290.246,246.030 290.410,245.714 290.610 M148.621 294.160 C 148.250 294.761,148.758 295.148,149.259 294.647 C 149.540 294.366,149.547 294.148,149.280 293.983 C 149.061 293.848,148.764 293.928,148.621 294.160 M254.409 302.148 C 254.412 303.223,254.487 303.616,254.577 303.022 C 254.667 302.428,254.665 301.549,254.572 301.069 C 254.479 300.588,254.406 301.074,254.409 302.148 M153.906 307.227 C 153.630 307.559,153.492 307.919,153.600 308.027 C 153.707 308.134,154.021 307.950,154.297 307.617 C 154.573 307.285,154.711 306.924,154.604 306.817 C 154.496 306.710,154.182 306.894,153.906 307.227 M254.794 309.375 C 254.794 310.342,254.870 310.737,254.963 310.254 C 255.056 309.771,255.056 308.979,254.963 308.496 C 254.870 308.013,254.794 308.408,254.794 309.375 M255.190 317.383 C 255.193 318.457,255.269 318.850,255.358 318.256 C 255.448 317.663,255.446 316.784,255.353 316.303 C 255.260 315.823,255.187 316.309,255.190 317.383 M132.158 318.226 C 132.299 318.367,132.197 318.747,131.930 319.070 C 131.504 319.586,131.548 319.593,132.299 319.125 C 133.146 318.598,133.165 317.969,132.334 317.969 C 132.096 317.969,132.017 318.084,132.158 318.226 M247.088 322.237 C 247.009 322.365,247.192 322.809,247.496 323.223 C 247.799 323.638,248.060 323.812,248.077 323.610 C 248.093 323.408,248.161 322.964,248.228 322.624 C 248.341 322.045,247.403 321.727,247.088 322.237 M122.763 326.172 C 122.763 327.139,122.839 327.534,122.932 327.051 C 123.025 326.567,123.025 325.776,122.932 325.293 C 122.839 324.810,122.763 325.205,122.763 326.172 M225.091 326.563 C 225.091 327.314,225.171 327.622,225.269 327.246 C 225.368 326.870,225.368 326.255,225.269 325.879 C 225.171 325.503,225.091 325.811,225.091 326.563 M240.923 340.120 C 241.408 340.213,242.112 340.210,242.485 340.112 C 242.858 340.014,242.461 339.938,241.602 339.942 C 240.742 339.947,240.437 340.027,240.923 340.120 " stroke="none" fill="#41403f" fill-rule="evenodd"></path><path id="path4" d="" stroke="none" fill="#7a7c7c" fill-rule="evenodd"></path></g></svg>