<?xml version="1.0" standalone="no"?>
<!DOCTYPE svg PUBLIC "-//W3C//DTD SVG 20010904//EN"
 "http://www.w3.org/TR/2001/REC-SVG-20010904/DTD/svg10.dtd">
<svg version="1.0" xmlns="http://www.w3.org/2000/svg"
 width="1024.000000pt" height="1024.000000pt" viewBox="0 0 1024.000000 1024.000000"
 preserveAspectRatio="xMidYMid meet">

<g transform="translate(0.000000,1024.000000) scale(0.100000,-0.100000)"
fill="#000000" stroke="none">
<path d="M8264 8748 c-44 -34 -115 -94 -159 -133 -44 -39 -102 -88 -130 -110
-211 -169 -306 -267 -385 -401 -115 -194 -174 -390 -187 -617 l-6 -112 -46
-45 c-26 -25 -124 -117 -219 -205 -153 -141 -478 -476 -519 -535 -14 -20 -14
-29 -2 -79 8 -31 14 -99 13 -151 0 -78 -5 -109 -28 -175 -47 -132 -130 -285
-218 -402 -23 -29 -38 -56 -35 -59 3 -3 117 104 254 238 410 402 652 625 1087
1003 l70 60 270 6 c301 7 304 7 472 89 152 73 300 204 549 486 177 200 215
249 215 279 0 35 -22 42 -140 50 -58 3 -157 10 -220 16 -63 5 -189 13 -280 19
-91 5 -181 12 -200 16 l-35 6 12 161 c21 284 26 598 11 627 -24 45 -57 38
-144 -32z m-175 -713 c0 -38 -3 -55 -8 -46 -5 7 -9 43 -9 80 0 45 2 60 8 46 5
-11 9 -47 9 -80z m-259 -112 c-4 -16 -14 -46 -22 -68 -8 -22 -23 -77 -34 -122
-23 -102 -37 -110 -18 -12 16 84 21 101 44 154 9 22 20 48 23 58 10 28 16 19
7 -10z m218 -188 c-6 -28 -13 -45 -15 -38 -4 12 16 97 22 91 2 -2 -1 -26 -7
-53z m755 -190 c-3 -9 -8 -14 -10 -11 -3 3 -2 9 2 15 9 16 15 13 8 -4z m-428
-175 c-33 -36 -79 -58 -135 -64 -47 -6 -52 -5 -35 6 29 19 179 85 184 82 2 -2
-4 -13 -14 -24z"/>
<path d="M4280 8339 c-270 -24 -569 -94 -864 -205 -166 -63 -538 -248 -669
-334 -451 -294 -823 -684 -1102 -1155 -211 -357 -370 -809 -446 -1274 -30
-182 -37 -563 -15 -761 75 -665 292 -1223 666 -1715 413 -544 928 -931 1545
-1162 434 -163 775 -226 1215 -225 529 0 1007 113 1495 352 367 179 641 373
905 639 379 382 664 866 854 1448 114 350 166 677 166 1048 0 479 -124 996
-352 1468 -55 113 -76 147 -91 147 -31 0 -341 -244 -371 -292 -7 -12 0 -40 32
-115 118 -277 201 -578 243 -883 18 -124 18 -554 1 -675 -63 -444 -160 -761
-341 -1110 -121 -233 -262 -435 -430 -618 -82 -88 -286 -264 -388 -334 -410
-281 -979 -487 -1488 -539 -331 -34 -732 10 -1092 121 -380 118 -707 283 -967
488 -240 190 -532 524 -695 796 -273 456 -421 997 -421 1541 0 372 99 808 262
1150 210 442 461 779 788 1054 216 182 590 391 845 473 391 126 629 165 1010
166 325 0 567 -34 877 -124 492 -144 921 -412 1241 -777 l46 -53 183 186 c101
103 185 191 186 196 6 16 -147 166 -268 263 -482 389 -1100 672 -1690 775
-266 47 -609 63 -870 40z m649 -205 c2 -2 -10 -4 -27 -4 -17 0 -34 4 -37 10
-5 9 53 3 64 -6z m58 -10 c-3 -3 -12 -4 -19 -1 -8 3 -5 6 6 6 11 1 17 -2 13
-5z m210 -30 c-3 -3 -12 -4 -19 -1 -8 3 -5 6 6 6 11 1 17 -2 13 -5z m160 -30
c-3 -3 -12 -4 -19 -1 -8 3 -5 6 6 6 11 1 17 -2 13 -5z m-1867 -24 c0 -5 -2
-10 -4 -10 -3 0 -8 5 -11 10 -3 6 -1 10 4 10 6 0 11 -4 11 -10z m2040 -32 c0
-4 -4 -8 -9 -8 -6 0 -12 4 -15 8 -3 5 1 9 9 9 8 0 15 -4 15 -9z m-1980 -62 c0
-2 -7 -7 -16 -10 -8 -3 -12 -2 -9 4 6 10 25 14 25 6z m-280 -40 c0 -3 -4 -8
-10 -11 -5 -3 -10 -1 -10 4 0 6 5 11 10 11 6 0 10 -2 10 -4z m187 -12 c-3 -3
-12 -4 -19 -1 -8 3 -5 6 6 6 11 1 17 -2 13 -5z m1933 -4 c0 -5 -2 -10 -4 -10
-3 0 -8 5 -11 10 -3 6 -1 10 4 10 6 0 11 -4 11 -10z m-2910 -704 c0 -3 -4 -8
-10 -11 -5 -3 -10 -1 -10 4 0 6 5 11 10 11 6 0 10 -2 10 -4z m5467 -1662 c-3
-3 -12 -4 -19 -1 -8 3 -5 6 6 6 11 1 17 -2 13 -5z m-62 -242 c-3 -3 -11 0 -18
7 -9 10 -8 11 6 5 10 -3 15 -9 12 -12z m-93 -779 c-7 -26 -15 -49 -18 -52 -11
-11 -11 8 -1 62 7 40 14 54 21 47 7 -7 6 -25 -2 -57z m-33 -117 c-6 -21 -12
-36 -14 -34 -3 2 0 21 6 42 6 21 12 36 14 34 3 -2 0 -21 -6 -42z m-6429 4 c0
-5 -5 -10 -11 -10 -5 0 -7 5 -4 10 3 6 8 10 11 10 2 0 4 -4 4 -10z m6407 -92
c-3 -7 -5 -2 -5 12 0 14 2 19 5 13 2 -7 2 -19 0 -25z m-6282 -48 c3 -5 1 -10
-4 -10 -6 0 -11 5 -11 10 0 6 2 10 4 10 3 0 8 -4 11 -10z m6252 -43 c-7 -20
-15 -37 -20 -37 -4 0 0 16 8 36 8 20 15 39 15 42 0 3 2 3 4 1 3 -2 -1 -21 -7
-42z m103 23 c0 -5 -5 -10 -11 -10 -5 0 -7 5 -4 10 3 6 8 10 11 10 2 0 4 -4 4
-10z m-353 -166 c-3 -3 -12 -4 -19 -1 -8 3 -5 6 6 6 11 1 17 -2 13 -5z m-5817
-174 c0 -5 -2 -10 -4 -10 -3 0 -8 5 -11 10 -3 6 -1 10 4 10 6 0 11 -4 11 -10z
m160 -360 c0 -5 -2 -10 -4 -10 -3 0 -8 5 -11 10 -3 6 -1 10 4 10 6 0 11 -4 11
-10z m4730 -1140 c0 -5 -5 -10 -11 -10 -5 0 -7 5 -4 10 3 6 8 10 11 10 2 0 4
-4 4 -10z m-561 -264 c-2 -2 -15 -9 -29 -15 -24 -11 -24 -11 -6 3 16 13 49 24
35 12z m131 -66 c0 -5 -2 -10 -4 -10 -3 0 -8 5 -11 10 -3 6 -1 10 4 10 6 0 11
-4 11 -10z m-1980 -80 c0 -5 -2 -10 -4 -10 -3 0 -8 5 -11 10 -3 6 -1 10 4 10
6 0 11 -4 11 -10z m340 -220 c0 -5 -2 -10 -4 -10 -3 0 -8 5 -11 10 -3 6 -1 10
4 10 6 0 11 -4 11 -10z m297 -66 c-3 -3 -12 -4 -19 -1 -8 3 -5 6 6 6 11 1 17
-2 13 -5z m413 -114 c0 -5 -2 -10 -4 -10 -3 0 -8 5 -11 10 -3 6 -1 10 4 10 6
0 11 -4 11 -10z"/>
<path d="M4380 7289 c-215 -22 -523 -98 -707 -174 -375 -156 -676 -379 -929
-690 -139 -171 -282 -439 -365 -686 -78 -233 -136 -614 -125 -834 17 -372 100
-691 268 -1033 230 -467 578 -824 1023 -1046 430 -214 821 -301 1208 -267 440
38 776 155 1137 396 233 155 405 316 579 545 128 167 185 257 261 415 190 391
271 843 229 1271 -26 271 -132 663 -192 712 -14 12 -21 11 -49 -9 -43 -30
-310 -252 -326 -271 -9 -11 -7 -29 8 -84 51 -175 73 -323 78 -521 5 -226 -5
-330 -52 -516 -58 -230 -168 -475 -300 -667 -105 -153 -342 -373 -526 -487
-272 -169 -578 -259 -920 -270 -544 -18 -1046 175 -1444 556 -248 239 -411
564 -481 961 -22 129 -31 426 -16 565 45 411 197 763 461 1064 155 177 471
385 732 482 79 29 275 80 365 94 92 15 305 21 413 13 315 -23 580 -111 818
-271 l74 -49 41 48 c83 94 272 299 280 302 18 8 1 25 -85 82 -98 66 -263 149
-419 211 -336 133 -715 191 -1039 158z m87 -25 c-3 -3 -12 -4 -19 -1 -8 3 -5
6 6 6 11 1 17 -2 13 -5z m853 -208 c0 -3 -4 -8 -10 -11 -5 -3 -10 -1 -10 4 0
6 5 11 10 11 6 0 10 -2 10 -4z m-2693 -1068 c-3 -8 -6 -5 -6 6 -1 11 2 17 5
13 3 -3 4 -12 1 -19z m-177 -238 c0 -5 -2 -10 -4 -10 -3 0 -8 5 -11 10 -3 6
-1 10 4 10 6 0 11 -4 11 -10z m4050 -130 c0 -5 -5 -10 -11 -10 -5 0 -7 5 -4
10 3 6 8 10 11 10 2 0 4 -4 4 -10z m-4085 -180 c3 -5 1 -10 -4 -10 -6 0 -11 5
-11 10 0 6 2 10 4 10 3 0 8 -4 11 -10z m-5 -764 c0 -3 -4 -8 -10 -11 -5 -3
-10 -1 -10 4 0 6 5 11 10 11 6 0 10 -2 10 -4z m4400 -186 c0 -5 -2 -10 -4 -10
-3 0 -8 5 -11 10 -3 6 -1 10 4 10 6 0 11 -4 11 -10z m-17 -75 c-3 -9 -8 -14
-10 -11 -3 3 -2 9 2 15 9 16 15 13 8 -4z m-3918 -333 c-3 -3 -11 0 -18 7 -9
10 -8 11 6 5 10 -3 15 -9 12 -12z m385 -668 c0 -2 -9 0 -20 6 -11 6 -20 13
-20 16 0 2 9 0 20 -6 11 -6 20 -13 20 -16z m2520 -68 c0 -2 -7 -9 -15 -16 -13
-11 -14 -10 -9 4 5 14 24 23 24 12z m15 -96 c3 -5 1 -10 -4 -10 -6 0 -11 5
-11 10 0 6 2 10 4 10 3 0 8 -4 11 -10z m-255 -40 c0 -5 -5 -10 -11 -10 -5 0
-7 5 -4 10 3 6 8 10 11 10 2 0 4 -4 4 -10z m30 -14 c0 -3 -4 -8 -10 -11 -5 -3
-10 -1 -10 4 0 6 5 11 10 11 6 0 10 -2 10 -4z m-1553 -292 c-3 -3 -12 -4 -19
-1 -8 3 -5 6 6 6 11 1 17 -2 13 -5z"/>
<path d="M6067 6746 c-74 -40 -103 -76 -219 -266 -84 -138 -115 -185 -203
-308 -277 -386 -527 -739 -740 -1045 -116 -166 -218 -313 -227 -326 l-17 -24
-308 311 c-196 197 -323 318 -348 330 -69 33 -111 36 -187 11 -84 -27 -138
-77 -181 -167 -27 -57 -29 -71 -25 -137 9 -137 47 -192 364 -522 519 -541 577
-591 698 -600 81 -7 136 11 219 71 104 74 226 229 527 666 132 192 387 562
562 813 49 70 162 223 251 340 207 272 199 260 232 342 73 183 -16 381 -215
478 -91 44 -144 54 -183 33z m-587 -1280 c-17 -25 -33 -46 -36 -46 -7 0 26 62
44 83 29 33 24 8 -8 -37z m-1423 -488 c-3 -8 -6 -5 -6 6 -1 11 2 17 5 13 3 -3
4 -12 1 -19z m43 -43 c-7 -9 -15 -13 -19 -10 -3 3 1 10 9 15 21 14 24 12 10
-5z m145 -55 c3 -5 1 -10 -4 -10 -6 0 -11 5 -11 10 0 6 2 10 4 10 3 0 8 -4 11
-10z"/>
<path d="M4415 6140 c-327 -30 -631 -181 -809 -400 -125 -155 -207 -309 -253
-475 -26 -93 -28 -113 -28 -290 0 -172 3 -200 27 -296 68 -268 186 -480 367
-659 251 -248 539 -370 876 -370 122 0 205 13 310 47 307 99 629 372 770 653
92 184 138 339 150 511 8 118 -2 132 -52 73 -61 -70 -247 -315 -367 -484 -311
-434 -449 -564 -639 -600 -151 -28 -280 23 -457 181 -162 145 -556 541 -622
624 -165 211 -230 355 -229 505 1 277 231 449 514 386 138 -31 247 -109 524
-379 85 -82 147 -135 154 -131 21 12 510 771 540 836 11 25 9 32 -16 68 -110
158 -395 233 -760 200z m175 -850 c0 -5 -5 -10 -11 -10 -5 0 -7 5 -4 10 3 6 8
10 11 10 2 0 4 -4 4 -10z m-495 -1430 c3 -6 -1 -7 -9 -4 -18 7 -21 14 -7 14 6
0 13 -4 16 -10z"/>
</g>
</svg>
