<?xml version="1.0" standalone="no"?>
<!DOCTYPE svg PUBLIC "-//W3C//DTD SVG 20010904//EN"
 "http://www.w3.org/TR/2001/REC-SVG-20010904/DTD/svg10.dtd">
<svg version="1.0" xmlns="http://www.w3.org/2000/svg"
 width="1024.000000pt" height="1024.000000pt" viewBox="0 0 1024.000000 1024.000000"
 preserveAspectRatio="xMidYMid meet">

<g transform="translate(0.000000,1024.000000) scale(0.100000,-0.100000)"
fill="#000000" stroke="none">
<path d="M4829 8992 c-8 -1 -547 -3 -1199 -5 l-1185 -2 -40 -22 c-71 -40 -128
-104 -146 -164 -6 -22 -9 -659 -8 -1734 1 -935 1 -1716 1 -1735 0 -19 0 -237
0 -485 -1 -247 -2 -486 -3 -530 -1 -44 -1 -89 -1 -100 1 -24 2 -468 2 -614 0
-57 2 -106 5 -109 3 -3 0 -11 -6 -18 -7 -9 -7 -19 1 -34 6 -11 8 -25 4 -32 -4
-6 -6 -43 -5 -82 1 -39 2 -114 2 -166 0 -278 0 -298 -1 -420 0 -58 1 -323 3
-590 4 -462 5 -488 25 -538 38 -97 97 -156 194 -195 l53 -21 2354 -1 c1295 0
2390 3 2433 6 59 5 90 14 130 36 60 34 119 104 139 166 21 64 24 7010 4 7111
-24 114 -92 203 -194 250 -42 19 -66 21 -261 24 -118 1 -219 3 -225 3 -5 0
-59 0 -120 -1 -255 -3 -1736 -1 -1876 3 -36 1 -72 1 -80 -1z m372 -268 c1147
-1 2095 -5 2107 -8 11 -4 25 -20 31 -37 7 -20 10 -1026 11 -3167 l0 -3137 -57
-50 c-117 -101 -272 -242 -413 -374 -80 -75 -176 -165 -215 -201 -38 -36 -74
-70 -80 -76 -29 -33 -76 -34 -1289 -34 -666 0 -1372 -1 -1569 -2 -196 -2 -357
0 -357 4 0 4 8 9 19 13 21 6 111 92 111 106 0 23 -30 3 -115 -74 -46 -42 -77
-51 -188 -51 -99 -1 -106 0 -85 14 34 21 160 151 154 157 -3 4 -30 -13 -58
-37 -29 -25 -75 -62 -102 -85 l-48 -40 -107 -5 c-58 -3 -107 -5 -108 -5 -1 1
63 67 143 147 l146 147 332 3 333 3 36 28 c61 46 62 49 65 312 4 253 -2 306
-38 325 -26 14 -49 1 -86 -47 l-29 -38 -6 -193 c-3 -105 -8 -194 -11 -197 -6
-6 -299 -9 -510 -5 -98 1 -138 6 -141 15 -9 21 -8 585 0 585 4 0 107 1 228 3
155 1 227 6 242 15 27 15 48 84 34 110 -23 44 -31 45 -312 49 -300 4 -322 0
-360 -61 -18 -29 -19 -52 -17 -418 l3 -387 39 -40 c27 -27 52 -43 75 -47 99
-15 100 -5 -20 -117 -61 -56 -135 -121 -165 -144 l-56 -43 -91 0 -90 0 109
108 c152 152 208 212 201 218 -3 4 -74 -55 -157 -129 -159 -141 -212 -179
-230 -161 -5 5 -11 40 -12 77 l-3 67 128 127 c70 71 127 135 127 142 0 8 -37
-22 -82 -66 -93 -90 -163 -153 -170 -153 -3 0 -4 26 -3 58 2 31 3 73 4 92 1
30 18 52 126 165 68 71 122 131 120 133 -7 8 -50 -29 -147 -125 -54 -53 -99
-95 -101 -92 -1 2 -1 43 1 91 l3 88 85 91 c78 86 95 109 77 109 -4 0 -43 -35
-85 -77 l-78 -78 0 93 0 93 65 69 c36 38 65 72 65 75 0 14 -21 1 -70 -44 -30
-28 -56 -48 -58 -46 -2 2 -3 684 -3 1516 l2 1512 84 90 c47 49 85 96 85 104 0
8 -32 -15 -72 -51 -40 -36 -78 -66 -85 -66 -10 0 -13 23 -13 86 l0 86 90 95
c83 86 102 113 83 113 -5 0 -41 -32 -81 -70 -41 -39 -78 -70 -83 -70 -6 0 -9
40 -8 102 l3 103 44 40 c84 75 172 170 172 184 0 15 -22 -3 -152 -129 l-68
-64 0 104 0 103 128 129 c70 70 129 133 130 138 7 21 -15 9 -49 -26 -43 -46
-199 -184 -208 -184 -3 0 -5 41 -3 92 l4 92 149 147 c82 81 149 152 149 159 0
15 -158 -120 -234 -200 -32 -34 -61 -58 -64 -55 -3 3 -5 48 -5 101 1 68 6 101
17 117 18 27 106 117 209 216 69 66 94 99 68 89 -5 -1 -71 -59 -146 -128 -76
-69 -141 -126 -145 -128 -4 -1 -6 21 -5 50 1 29 3 69 4 88 1 32 17 52 146 180
131 132 162 167 152 176 -1 2 -25 -18 -53 -44 -27 -26 -92 -86 -143 -134 -51
-49 -95 -88 -97 -88 -2 0 -4 43 -4 95 l0 95 205 203 c113 111 205 209 205 216
0 8 -33 -17 -72 -54 -184 -174 -337 -310 -341 -304 -2 2 -1 43 1 91 l4 87 97
94 c53 52 175 171 271 265 96 93 172 173 168 178 -4 4 -45 -29 -90 -72 -46
-44 -123 -114 -171 -156 -49 -43 -132 -118 -185 -167 l-97 -89 5 98 5 97 130
124 c72 68 202 190 290 270 172 158 211 196 204 203 -3 3 -50 -34 -106 -82
-91 -78 -390 -338 -483 -419 -21 -18 -40 -30 -43 -26 -4 3 -4 37 -1 75 4 51
11 79 27 100 12 16 137 135 277 263 242 221 349 325 335 325 -11 0 -67 -42
-126 -95 -30 -27 -73 -63 -94 -80 -42 -33 -54 -43 -262 -228 -79 -70 -146
-127 -151 -127 -8 0 -9 17 -4 118 1 22 12 43 30 60 62 61 351 317 391 347 14
11 37 30 51 42 14 13 41 26 60 29 19 4 42 10 50 14 8 5 19 5 25 2 5 -4 949 -7
2096 -8z m-2509 0 c5 -3 -10 -20 -32 -39 -22 -18 -52 -47 -66 -65 -15 -17 -29
-29 -31 -26 -3 3 -17 -9 -31 -25 -22 -27 -26 -29 -34 -14 -13 23 1 111 21 137
11 13 34 24 62 28 60 8 101 10 111 4z m258 -1 c0 -10 -66 -66 -120 -103 -19
-13 -73 -58 -120 -99 -47 -42 -114 -102 -150 -133 l-66 -57 -2 71 -2 72 78 75
c42 42 105 99 139 127 l62 51 90 2 c50 1 91 -2 91 -6z m4400 -6491 l-5 -118
-83 -74 c-46 -41 -121 -109 -167 -150 -294 -264 -270 -250 -424 -250 l-94 0
41 29 c41 30 130 112 322 297 58 55 132 125 165 154 90 80 175 161 209 198 16
17 32 32 35 32 3 0 4 -53 1 -118z m0 -252 c0 -96 -1 -101 -26 -123 -15 -12
-32 -28 -38 -35 -6 -7 -55 -51 -109 -97 l-98 -85 -105 0 c-64 0 -104 4 -102
10 2 5 31 33 65 62 121 104 289 256 343 311 30 31 58 57 63 57 4 0 7 -45 7
-100z m0 -209 c0 -59 -4 -74 -23 -97 -21 -24 -33 -28 -88 -30 -102 -5 -107 0
-52 51 27 23 73 66 103 94 30 28 56 51 58 51 1 0 2 -31 2 -69z"/>
<path d="M4925 8613 c-64 -14 -155 -50 -191 -74 -154 -105 -234 -299 -221
-534 8 -138 42 -229 127 -335 18 -23 18 -29 7 -62 -20 -56 -52 -84 -126 -112
-101 -38 -230 -73 -291 -81 -278 -35 -480 -207 -535 -455 -32 -148 -35 -154
-88 -218 -70 -83 -125 -256 -196 -612 -32 -161 -40 -263 -30 -364 13 -123 26
-164 60 -182 58 -29 119 -8 111 38 -3 17 73 140 119 193 9 11 27 38 39 60 l22
40 -32 -30 c-18 -16 -59 -65 -90 -108 l-58 -78 -7 40 c-13 75 -9 82 149 287
54 70 101 135 104 144 16 45 -167 -164 -210 -241 -22 -40 -48 -52 -48 -21 1
27 26 138 35 152 12 19 28 39 115 139 99 114 104 121 93 121 -11 0 -65 -51
-136 -128 -50 -54 -68 -64 -63 -34 2 9 6 37 10 62 6 40 20 59 136 184 119 128
141 156 124 156 -4 0 -56 -48 -115 -107 -60 -59 -112 -104 -115 -100 -10 10
63 213 92 257 27 40 58 66 107 87 66 29 344 283 310 283 -9 0 -166 -133 -238
-201 -25 -24 -55 -47 -66 -51 -16 -6 -19 -3 -19 21 0 53 36 115 101 176 159
150 253 245 243 245 -12 0 -132 -98 -211 -173 -66 -63 -99 -86 -91 -66 2 8 13
39 24 68 25 71 107 161 171 189 47 20 168 50 291 72 76 13 219 59 287 91 57
26 142 108 151 145 7 28 8 29 39 8 38 -25 92 -35 184 -34 69 0 95 5 139 25 30
14 56 25 58 25 2 0 4 -11 4 -25 0 -66 67 -132 186 -185 93 -40 148 -44 271
-17 79 18 85 18 135 2 29 -10 86 -33 127 -52 42 -20 82 -33 95 -30 11 3 59 15
106 27 65 17 101 21 156 17 78 -6 117 -22 180 -73 23 -19 50 -34 60 -34 34 1
57 27 56 62 -1 23 8 42 27 63 52 57 86 109 67 102 -10 -4 -20 -7 -22 -7 -2 0
-4 -5 -4 -11 0 -6 -15 -28 -34 -49 l-33 -37 -12 34 c-10 28 -10 36 3 49 30 30
66 81 66 94 0 7 -19 -6 -42 -29 -49 -49 -58 -43 -58 40 0 40 5 61 19 75 10 11
24 31 31 44 11 20 10 22 -5 17 -9 -4 -19 -7 -21 -7 -3 0 -9 -12 -15 -26 -5
-15 -12 -24 -15 -21 -3 2 -12 53 -19 113 -18 136 -45 194 -97 211 -24 8 -47 9
-67 3 -35 -10 -73 -2 -68 14 1 6 28 23 58 38 53 26 53 27 21 27 -18 1 -60 -13
-93 -29 -69 -35 -92 -33 -115 11 -45 88 69 187 199 172 29 -3 66 -14 84 -25
36 -21 103 -93 103 -109 0 -6 14 -31 30 -56 17 -24 30 -46 30 -49 0 -3 16 -29
35 -59 121 -190 239 -501 251 -665 2 -30 6 -83 9 -117 6 -77 17 -69 -215 -164
-155 -64 -344 -118 -359 -103 -2 2 13 19 35 38 22 19 58 56 80 83 33 41 35 45
12 31 -14 -10 -39 -29 -55 -44 -39 -36 -147 -120 -151 -116 -1 2 -16 1 -32 -3
-16 -4 -37 -2 -47 4 -10 6 -13 11 -6 11 14 0 139 150 125 150 -6 0 -32 -23
-59 -51 -84 -89 -158 -129 -170 -93 -2 7 13 32 34 57 109 130 105 143 -10 29
-52 -52 -90 -82 -104 -82 -47 0 -40 24 33 120 41 55 57 89 34 75 -14 -9 -90
-112 -90 -123 0 -4 -6 -17 -14 -27 -23 -31 0 78 30 144 13 29 24 55 24 57 0
11 -59 2 -80 -13 -80 -53 -129 -137 -175 -295 -45 -155 -91 -228 -170 -264
-69 -32 -82 -30 -45 8 42 42 83 104 78 119 -2 6 -21 -11 -43 -40 -65 -86 -150
-143 -198 -134 -21 4 -19 8 20 49 46 47 78 92 72 99 -3 2 -41 -31 -84 -75 -84
-83 -88 -84 -173 -70 -2 0 9 12 23 27 14 15 25 31 25 36 0 13 -54 -20 -99 -61
l-43 -39 53 -26 c160 -75 277 -92 408 -58 46 12 85 20 88 18 4 -4 -29 -151
-47 -212 -42 -140 -52 -205 -53 -354 l-2 -154 26 -19 c19 -15 35 -18 55 -14
62 14 64 21 69 177 3 106 10 165 26 224 36 134 66 269 73 340 12 100 39 228
62 285 17 43 37 50 89 30 47 -18 159 -31 257 -31 146 1 344 52 598 156 58 23
122 48 143 55 42 13 79 44 91 75 28 73 12 303 -34 479 -57 221 -113 349 -249
580 -115 195 -175 267 -256 307 -70 34 -221 34 -309 -1 -112 -43 -188 -141
-188 -239 2 -136 73 -239 187 -270 22 -6 70 -11 108 -11 57 0 67 -3 68 -17 1
-44 18 -185 28 -238 5 -28 8 -51 7 -53 -2 -1 -19 5 -39 13 -47 20 -147 19
-239 -1 -101 -23 -103 -23 -193 21 -96 48 -179 56 -289 31 -69 -16 -70 -16
-147 9 -42 14 -84 34 -93 44 -9 9 -25 44 -36 76 l-20 58 36 54 c69 104 94 221
88 406 -6 169 -36 261 -115 354 -90 104 -213 164 -331 162 -35 -1 -72 -3 -83
-6z m195 -190 c73 -32 106 -65 143 -143 l32 -65 0 -165 c-1 -158 -2 -167 -28
-220 -34 -71 -89 -136 -136 -160 -20 -10 -65 -23 -99 -30 -60 -10 -63 -10
-136 25 -66 31 -81 44 -122 101 l-47 66 49 47 c85 84 126 131 121 144 -2 7
-42 -25 -91 -72 -56 -55 -90 -81 -96 -75 -5 5 -13 30 -16 55 -6 45 -6 45 56
105 87 83 184 193 176 201 -3 3 -57 -44 -120 -106 -62 -62 -116 -108 -120
-103 -3 5 -3 33 1 62 5 47 13 61 62 114 30 34 67 72 81 86 15 14 42 45 60 69
51 66 9 38 -93 -64 -89 -89 -114 -100 -95 -42 29 85 131 180 207 192 20 4 43
8 51 9 34 7 108 -8 160 -31z m-1520 -2307 c0 -3 -4 -8 -10 -11 -5 -3 -10 -1
-10 4 0 6 5 11 10 11 6 0 10 -2 10 -4z"/>
<path d="M4856 7819 c-31 -28 -56 -57 -56 -65 0 -17 20 -19 20 -1 1 6 18 26
39 42 39 31 66 63 58 71 -2 3 -30 -18 -61 -47z"/>
<path d="M4793 7366 c-12 -7 -46 -34 -75 -60 -29 -27 -64 -53 -78 -58 -81 -33
-120 -54 -117 -62 2 -5 41 -11 88 -13 89 -3 225 -29 235 -44 3 -5 14 -9 25 -9
14 0 19 7 19 30 0 48 -71 97 -142 99 -34 1 -36 14 -4 34 26 17 93 98 79 96 -4
-1 -18 -6 -30 -13z"/>
<path d="M5135 7238 c-55 -19 -91 -63 -80 -98 6 -19 45 -29 45 -12 0 4 33 16
74 27 57 14 94 17 155 12 58 -5 82 -3 90 7 8 10 -1 17 -42 33 -104 42 -183 52
-242 31z"/>
<path d="M4147 6798 c-36 -49 -38 -54 -48 -121 -7 -48 -5 -78 8 -135 l17 -73
-34 -67 c-73 -138 -163 -254 -240 -306 l-25 -16 -7 -243 c-4 -178 -3 -245 5
-254 15 -14 54 -18 88 -9 23 7 28 16 43 84 10 47 17 131 18 215 l1 139 31 15
c18 8 59 53 96 101 l64 87 12 -90 c7 -49 24 -134 38 -188 20 -75 26 -124 27
-210 1 -137 4 -151 35 -166 104 -47 133 32 108 297 -5 58 -4 72 7 73 12 0 107
104 131 142 4 7 24 -7 56 -43 l50 -55 89 0 c90 0 148 16 140 39 -2 6 -42 18
-90 27 -47 8 -92 20 -99 26 -7 6 -40 20 -74 33 l-61 21 -67 -69 c-37 -39 -73
-78 -81 -88 -13 -19 -17 -10 -28 73 -1 6 25 44 58 84 109 133 108 166 -1 44
-37 -41 -70 -75 -74 -75 -7 0 -20 81 -23 145 -2 33 -9 32 109 19 34 -4 76 -2
95 4 19 5 62 16 96 22 83 17 155 64 164 107 3 18 12 40 19 48 21 25 -13 19
-36 -6 -35 -40 -124 -64 -139 -38 -4 6 7 28 25 50 47 59 31 57 -30 -2 -53 -51
-53 -51 -104 -44 -28 3 -52 8 -55 10 -2 2 8 18 23 35 26 31 33 50 19 50 -5 -1
-26 -19 -48 -40 -22 -22 -45 -40 -52 -40 -21 0 -63 19 -63 29 0 5 18 31 40 57
55 67 50 76 -10 20 -27 -25 -53 -46 -57 -46 -4 0 -16 20 -26 45 -19 44 -18 45
2 74 12 16 21 37 20 48 0 16 -2 15 -16 -4 -21 -31 -53 -30 -53 1 0 12 -4 36
-9 52 -5 16 -14 55 -21 87 -13 66 -28 72 -63 25z"/>
<path d="M4949 6783 c-17 -43 -12 -220 8 -275 9 -27 19 -48 22 -48 4 0 14 18
25 40 16 33 18 55 14 137 -7 140 -42 214 -69 146z"/>
<path d="M4926 6200 c-13 -32 -14 -49 -5 -96 6 -31 15 -68 20 -82 l9 -25 20
23 c22 26 35 96 26 142 -6 30 -36 78 -49 78 -3 0 -12 -18 -21 -40z"/>
<path d="M5351 6075 c-65 -29 -127 -47 -176 -51 -82 -9 -89 -10 -93 -22 -6
-20 78 -52 138 -52 83 0 195 68 188 114 -4 26 -16 28 -57 11z"/>
<path d="M4926 5929 c-21 -36 -17 -101 13 -180 10 -26 16 -51 12 -55 -3 -4 1
-5 9 -2 20 6 42 109 37 171 -3 35 -11 56 -28 73 l-25 24 -18 -31z"/>
<path d="M4509 5873 c-48 -40 -88 -86 -89 -101 0 -22 34 4 90 68 55 63 54 79
-1 33z"/>
<path d="M5370 5789 c-19 -4 -62 -15 -95 -23 -33 -9 -85 -16 -115 -16 -66 0
-85 -10 -75 -39 22 -71 231 -39 308 48 39 44 39 45 -23 30z"/>
<path d="M4508 5698 c-67 -82 -90 -118 -73 -118 13 0 120 102 127 121 9 24 25
24 69 2 45 -23 152 -23 197 0 59 32 41 47 -72 59 -45 4 -102 12 -128 16 l-47
9 -73 -89z"/>
<path d="M3819 5395 c-16 -9 -64 -73 -118 -157 -50 -79 -118 -183 -151 -233
-33 -49 -77 -115 -97 -145 -20 -30 -38 -57 -40 -60 -3 -3 -12 5 -21 17 -111
148 -127 163 -171 163 -28 0 -71 -39 -71 -64 0 -44 111 -215 190 -295 65 -64
125 -36 230 108 108 147 347 516 359 554 30 89 -34 153 -110 112z"/>
<path d="M2974 5274 c-18 -9 -43 -27 -55 -41 l-24 -25 -3 -397 -2 -398 22 -33
c47 -70 44 -69 438 -70 195 -1 382 -1 414 -1 56 1 61 3 98 41 l38 41 0 273 c0
252 -1 276 -19 297 -16 20 -22 21 -52 13 -21 -6 -43 -24 -61 -49 l-28 -40 -1
-193 c-1 -113 -6 -195 -11 -199 -12 -7 -637 -5 -649 3 -4 2 -7 143 -6 311 l2
307 217 2 c242 1 268 6 286 58 17 47 15 64 -13 91 l-24 25 -268 0 c-222 0
-273 -3 -299 -16z"/>
<path d="M4605 5110 c-338 -5 -372 -7 -397 -23 -33 -23 -46 -75 -28 -118 27
-63 -57 -59 1364 -57 l1295 3 30 29 c38 36 46 68 26 107 -32 61 3 59 -1002 62
-505 1 -1084 0 -1288 -3z"/>
<path d="M4261 4699 c-107 -14 -124 -142 -24 -180 14 -5 406 -9 974 -9 1005 0
981 -1 1018 44 7 8 13 31 14 50 1 41 -31 82 -72 91 -35 7 -1854 12 -1910 4z"/>
<path d="M3809 4175 c-15 -8 -98 -121 -204 -280 -98 -146 -181 -268 -186 -270
-4 -3 -33 26 -64 65 -31 39 -64 74 -73 78 -32 12 -81 6 -102 -13 -31 -28 -25
-67 24 -142 131 -205 206 -253 278 -180 18 18 86 109 150 202 65 94 152 220
194 280 113 162 129 214 78 254 -31 24 -58 26 -95 6z"/>
<path d="M2975 4076 c-16 -7 -41 -26 -55 -41 l-25 -27 -5 -376 c-3 -207 -2
-392 3 -411 12 -45 46 -77 96 -91 28 -7 162 -10 414 -8 l372 3 45 25 c77 43
80 56 80 345 0 276 -4 295 -59 295 -35 0 -55 -16 -79 -65 -18 -34 -21 -65 -24
-222 -3 -101 -8 -186 -12 -190 -4 -5 -152 -8 -329 -8 l-322 0 -2 260 c0 143 2
278 6 300 l6 40 229 5 228 5 24 28 c34 40 33 98 -2 126 -26 20 -38 21 -293 21
-199 -1 -274 -4 -296 -14z"/>
<path d="M4243 3909 c-39 -11 -73 -52 -73 -89 0 -30 30 -73 63 -93 34 -19
2581 -20 2619 -1 92 47 68 159 -40 182 -59 13 -2523 14 -2569 1z"/>
<path d="M4216 3498 c-19 -10 -38 -27 -41 -39 -11 -34 3 -84 31 -110 l26 -24
961 -3 c711 -2 969 1 990 9 32 13 57 55 57 94 0 28 -48 84 -72 86 -7 0 -441 1
-965 3 -898 2 -954 1 -987 -16z"/>
<path d="M7138 3243 c-101 -89 -368 -347 -368 -355 0 -21 29 -1 108 76 48 46
131 126 185 177 134 127 190 204 75 102z"/>
<path d="M7144 2969 c-49 -45 -131 -122 -182 -171 -91 -88 -93 -90 -124 -79
-22 8 -408 11 -1299 11 -1369 0 -1316 2 -1353 -52 -9 -12 -16 -37 -16 -54 0
-39 44 -80 93 -89 18 -3 607 -4 1309 -3 l1277 3 23 23 c19 19 23 33 23 85 l-1
62 61 55 c193 176 253 234 269 260 9 17 16 30 14 30 -2 0 -44 -37 -94 -81z"/>
<path d="M3810 2997 c-24 -12 -49 -46 -159 -217 -130 -203 -242 -370 -249
-370 -4 0 -20 20 -35 44 -40 64 -103 126 -128 126 -25 0 -79 -30 -80 -45 0 -5
-2 -20 -5 -31 -6 -36 143 -246 204 -286 43 -28 87 -23 126 15 33 31 298 418
398 581 58 95 64 142 22 175 -30 24 -58 26 -94 8z"/>
<path d="M7015 2612 c-304 -286 -474 -454 -448 -445 22 8 136 111 343 308 282
268 340 328 328 340 -2 2 -102 -90 -223 -203z"/>
<path d="M7266 2560 c-39 -35 -167 -153 -301 -279 -38 -37 -146 -136 -240
-221 -221 -201 -391 -367 -383 -375 3 -3 76 58 162 137 87 79 190 172 229 207
241 214 581 544 576 557 -2 5 -22 -7 -43 -26z"/>
<path d="M4245 2315 c-72 -25 -94 -78 -54 -129 46 -59 -6 -56 1016 -55 699 0
947 3 973 12 25 9 40 23 54 51 17 36 18 41 3 65 -8 14 -26 34 -39 44 -23 17
-79 18 -968 22 -786 3 -952 1 -985 -10z"/>
</g>
</svg>
