<?xml version="1.0" standalone="no"?>
<!DOCTYPE svg PUBLIC "-//W3C//DTD SVG 20010904//EN"
 "http://www.w3.org/TR/2001/REC-SVG-20010904/DTD/svg10.dtd">
<svg version="1.0" xmlns="http://www.w3.org/2000/svg"
 width="1024.000000pt" height="1024.000000pt" viewBox="0 0 1024.000000 1024.000000"
 preserveAspectRatio="xMidYMid meet">

<g transform="translate(0.000000,1024.000000) scale(0.100000,-0.100000)"
fill="#000000" stroke="none">
<path d="M4635 8293 c-307 -9 -796 -68 -1115 -133 -52 -11 -140 -29 -195 -40
-226 -46 -520 -145 -697 -233 -215 -108 -328 -199 -399 -322 -64 -110 -59 69
-60 -2400 0 -2487 -5 -2305 63 -2424 123 -215 415 -372 952 -510 327 -85 639
-134 1156 -181 290 -27 1033 -32 1380 -10 377 25 749 73 1000 130 52 12 114
26 137 31 128 26 443 131 584 194 164 73 261 135 351 226 78 78 102 115 133
204 17 47 18 177 21 2275 2 1325 -1 2265 -7 2324 -9 94 -11 101 -53 160 -83
117 -241 231 -446 321 -111 49 -295 116 -405 146 -38 10 -104 28 -145 39 -68
19 -477 102 -560 114 -553 80 -1068 107 -1695 89z m252 -282 c11 -6 -1 -14
-44 -30 -32 -12 -83 -34 -113 -48 -30 -14 -116 -54 -190 -88 -108 -50 -318
-162 -339 -181 -2 -2 -2 -6 1 -9 3 -3 74 29 159 71 85 42 175 85 202 95 26 10
102 44 170 75 216 99 265 114 370 113 51 -1 104 -4 119 -8 28 -6 0 -20 -328
-160 -39 -17 -99 -46 -134 -66 -34 -19 -65 -35 -68 -35 -4 0 -16 -8 -27 -17
-19 -15 -19 -15 6 -9 15 3 64 23 110 45 46 21 116 51 154 66 39 15 88 35 110
45 311 137 301 134 442 123 76 -6 111 -12 98 -17 -117 -46 -285 -121 -395
-176 -194 -97 -205 -103 -193 -107 6 -2 66 23 134 55 150 72 276 126 429 185
l115 44 99 -8 c101 -8 138 -21 95 -34 -86 -27 -384 -163 -376 -172 4 -3 19 -1
34 5 15 6 126 50 246 97 198 77 222 84 255 76 21 -5 70 -12 110 -16 39 -4 74
-10 77 -14 2 -4 -33 -21 -78 -36 -81 -28 -304 -133 -341 -161 -43 -31 -2 -23
81 16 94 45 280 120 377 151 52 17 67 18 120 8 79 -15 98 -25 71 -35 -55 -20
-188 -76 -255 -107 -41 -19 -83 -37 -93 -40 -10 -4 -16 -11 -12 -17 3 -6 14
-6 28 0 12 5 92 37 177 70 85 34 174 71 197 82 40 20 43 20 115 4 40 -10 84
-20 98 -23 17 -4 20 -7 10 -11 -76 -27 -430 -205 -430 -216 0 -14 41 1 171 62
68 33 167 78 219 102 l95 43 65 -17 c36 -10 69 -22 74 -27 6 -5 -22 -23 -70
-44 -196 -89 -337 -169 -258 -146 29 8 195 79 334 143 59 27 69 29 110 20 25
-6 63 -18 85 -28 l40 -17 -207 -100 c-115 -55 -208 -104 -208 -109 0 -5 10 -6
23 -2 35 10 211 87 332 144 120 56 121 57 220 12 l40 -19 -150 -75 c-218 -109
-309 -158 -320 -170 -25 -26 64 10 274 113 123 60 230 109 238 109 13 0 123
-58 123 -66 0 -1 -84 -46 -187 -99 -104 -52 -199 -104 -212 -115 -26 -23 -20
-42 7 -22 9 7 96 51 192 97 96 47 183 90 192 95 31 17 53 11 88 -25 18 -19 32
-36 29 -37 -2 -2 -75 -39 -162 -83 -194 -98 -259 -138 -235 -143 10 -2 30 5
45 16 16 10 87 47 158 81 72 35 147 71 168 82 22 10 41 19 43 19 2 0 4 -15 4
-33 0 -73 -180 -199 -415 -290 -274 -106 -539 -169 -960 -226 -477 -65 -1228
-98 -1618 -71 -82 5 -197 13 -255 16 -247 13 -761 81 -985 130 -40 9 -102 22
-139 30 -111 24 -315 82 -386 110 -37 15 -120 54 -185 87 -92 46 -134 74 -187
126 -114 110 -107 166 32 275 81 64 113 82 293 164 111 51 351 129 362 118 3
-3 -7 -10 -23 -16 -27 -10 -61 -27 -185 -92 -116 -62 -341 -206 -354 -229 -11
-17 4 -10 83 39 42 26 95 56 117 67 22 11 42 23 45 26 3 4 104 57 225 118 227
115 338 158 485 186 47 9 103 20 125 25 21 5 41 8 42 6 2 -1 -52 -31 -119 -65
-68 -34 -154 -79 -193 -99 -38 -21 -115 -62 -170 -91 -55 -30 -113 -63 -130
-75 -16 -12 -64 -42 -105 -66 -91 -53 -85 -49 -77 -56 3 -4 52 19 109 51 144
81 340 185 482 257 67 34 148 78 181 98 66 39 179 64 339 74 l79 5 -84 -40
c-46 -23 -133 -65 -194 -94 -123 -60 -339 -178 -422 -231 -61 -39 -66 -59 -6
-25 92 51 666 332 738 361 77 31 194 49 320 49 l40 0 -65 -28 c-279 -122 -762
-379 -715 -381 6 0 98 44 205 98 242 122 472 229 585 274 27 11 54 23 60 27 5
4 30 9 55 10 24 1 45 3 46 4 7 7 159 5 171 -2z m-2403 -1061 l39 -24 -39 -33
-39 -32 -7 37 c-9 50 -10 84 0 80 4 -2 25 -14 46 -28z m5186 -25 c0 -2 -46
-40 -102 -84 -242 -189 -325 -255 -359 -285 -20 -17 -71 -60 -113 -95 -66 -56
-88 -81 -72 -81 3 0 52 37 109 83 57 45 146 114 196 152 131 99 270 212 309
248 l32 31 0 -61 0 -62 -117 -93 c-65 -51 -199 -158 -299 -238 -99 -80 -199
-158 -220 -175 -54 -41 -112 -97 -97 -93 21 5 298 214 516 387 115 91 211 167
215 169 4 1 6 -29 4 -67 l-4 -69 -51 -44 c-28 -23 -63 -52 -78 -63 -14 -11
-70 -54 -124 -95 -54 -41 -112 -86 -130 -100 -77 -59 -161 -125 -171 -135 -6
-5 -59 -48 -117 -95 -99 -78 -121 -100 -99 -100 5 0 36 21 69 48 146 114 280
218 419 322 158 120 252 195 271 217 17 21 23 -123 6 -147 -12 -17 -61 -56
-368 -290 -228 -175 -485 -390 -465 -390 12 0 198 141 343 259 38 31 97 76
131 101 34 25 111 83 170 130 125 98 187 142 192 138 1 -2 5 -37 9 -78 l6 -75
-168 -127 c-93 -70 -185 -140 -205 -155 -37 -28 -263 -202 -428 -330 -86 -66
-107 -89 -73 -76 22 8 138 91 214 152 31 26 82 64 114 86 31 22 94 69 140 105
46 36 131 101 190 145 59 44 129 97 156 118 47 36 49 37 50 15 0 -13 2 -44 4
-70 l2 -47 -101 -81 c-55 -45 -108 -86 -116 -93 -8 -7 -80 -64 -160 -128 -80
-64 -165 -135 -190 -158 -40 -37 -41 -40 -15 -27 36 17 191 135 412 313 150
121 158 126 164 102 11 -37 10 -118 -1 -139 -17 -32 -156 -136 -257 -194 -170
-96 -343 -162 -561 -213 -83 -20 -129 -58 -137 -117 -9 -56 14 -109 57 -136
46 -30 130 -22 285 24 68 20 128 36 135 36 7 0 42 13 78 30 36 16 57 24 46 17
-10 -6 -29 -21 -41 -32 -47 -42 -82 -71 -133 -113 -28 -24 -52 -48 -52 -53 0
-14 89 46 170 116 72 62 116 93 300 214 47 31 88 60 92 66 5 6 8 3 8 -7 0 -9
-32 -47 -72 -85 -191 -180 -249 -233 -318 -293 -41 -35 -86 -75 -100 -88 -14
-14 -40 -36 -57 -49 -31 -24 -42 -43 -25 -43 14 0 198 156 386 327 104 95 193
170 198 167 4 -3 8 -29 8 -58 0 -41 -5 -59 -22 -78 -13 -14 -115 -105 -228
-203 -237 -206 -344 -305 -336 -312 6 -7 61 37 281 227 251 216 291 250 299
250 3 0 6 -26 6 -57 0 -55 -2 -58 -48 -102 -26 -25 -109 -100 -186 -166 -395
-343 -434 -377 -410 -368 34 13 199 146 478 388 90 79 149 125 159 125 4 0 7
-31 7 -69 l0 -68 -62 -49 c-35 -27 -88 -71 -119 -99 -31 -27 -114 -102 -185
-165 -160 -143 -295 -272 -290 -278 5 -4 136 107 311 263 44 39 107 93 140
120 32 28 75 65 95 82 19 18 38 33 42 33 3 0 20 12 37 26 l31 26 0 -69 0 -68
-222 -190 c-123 -104 -263 -226 -313 -271 -49 -44 -103 -92 -120 -106 -16 -15
-46 -40 -65 -57 -19 -17 -30 -31 -24 -31 11 0 145 108 341 275 243 208 385
325 394 325 5 0 9 -27 9 -61 0 -71 22 -46 -235 -274 -204 -182 -368 -335 -374
-348 -9 -23 73 45 305 253 84 76 293 250 299 250 3 0 5 -29 5 -64 l0 -65 -78
-68 c-43 -37 -144 -124 -225 -192 -135 -115 -178 -160 -110 -116 39 26 255
198 334 267 37 32 70 58 74 58 4 0 5 -27 3 -60 -5 -75 -29 -102 -177 -201
-226 -152 -505 -261 -852 -333 -80 -17 -112 -40 -130 -93 -31 -96 60 -195 165
-177 62 11 202 46 260 65 32 11 62 19 66 17 4 -2 -30 -37 -75 -78 -46 -41 -82
-77 -80 -78 4 -4 80 47 110 75 88 79 132 106 237 147 62 24 122 47 133 52 11
4 2 -7 -20 -26 -22 -19 -69 -61 -105 -95 -36 -33 -98 -89 -139 -125 -90 -79
-123 -112 -117 -118 5 -4 138 105 236 192 125 111 220 185 349 270 l141 94 0
-42 c0 -49 -18 -68 -219 -237 -480 -402 -737 -627 -727 -636 3 -3 47 28 98 70
117 95 296 244 368 306 30 25 111 94 180 151 69 58 127 107 130 110 3 3 42 36
88 73 l82 68 0 -73 c-1 -61 -4 -77 -23 -98 -29 -32 -507 -451 -801 -700 -300
-255 -293 -249 -278 -250 20 0 137 90 291 225 72 63 96 84 200 170 102 85 372
317 499 429 51 44 97 83 102 84 6 2 10 -29 10 -75 l0 -79 -126 -109 c-70 -61
-172 -150 -229 -200 -56 -49 -145 -127 -197 -173 -86 -75 -238 -227 -238 -238
0 -13 52 27 133 104 51 48 152 139 226 202 74 63 200 172 280 242 l146 126 3
-76 3 -77 -68 -65 c-37 -36 -168 -155 -291 -265 -212 -190 -227 -201 -300
-228 -244 -88 -766 -183 -1172 -212 -41 -3 -138 -10 -215 -16 -186 -15 -862
-15 -1045 -1 -80 7 -181 14 -224 17 -43 2 -113 7 -154 11 l-75 7 49 43 c27 24
46 43 43 44 -4 0 -37 -19 -75 -41 l-67 -41 -109 12 c-60 7 -111 16 -113 20 -3
4 20 27 51 51 79 61 51 61 -33 0 l-68 -49 -95 14 c-52 7 -105 16 -118 19 -27
7 -24 9 58 71 68 51 138 113 127 114 -17 0 -54 -25 -145 -97 l-93 -74 -107 18
c-60 11 -107 24 -107 30 0 6 18 25 40 43 64 51 147 132 141 138 -4 3 -16 -4
-29 -15 -30 -27 -40 -34 -127 -99 -82 -61 -92 -63 -199 -32 l-45 14 74 59
c101 82 176 152 169 159 -3 4 -44 -23 -90 -60 -46 -36 -108 -84 -137 -106
l-53 -41 -90 28 c-49 16 -89 32 -89 36 0 4 17 19 38 35 20 15 55 44 78 63 49
44 128 109 150 126 9 6 15 17 13 23 -2 6 -47 -22 -99 -63 -52 -42 -120 -94
-150 -118 -30 -23 -56 -45 -58 -49 -4 -8 -64 12 -122 42 l-43 22 49 47 c27 26
118 109 202 185 84 76 151 141 148 144 -5 4 -43 -26 -244 -198 -36 -30 -92
-78 -126 -106 l-61 -52 -57 31 c-32 18 -58 36 -58 42 0 16 359 362 470 454 14
11 20 20 13 21 -27 0 -321 -254 -449 -387 l-60 -64 -30 23 c-79 61 -75 79 39
195 106 109 385 369 469 438 l57 46 143 -35 c192 -47 208 -49 255 -37 71 19
108 86 89 161 -15 59 -47 80 -172 109 -184 43 -504 143 -504 158 0 2 14 16 30
30 46 38 36 48 -14 13 -25 -16 -50 -30 -56 -30 -10 0 -149 66 -158 75 -2 2 34
39 81 84 46 44 90 92 97 106 7 14 19 25 27 25 7 0 13 5 13 10 0 6 -3 10 -6 10
-6 0 -128 -108 -207 -183 l-40 -37 -54 36 c-30 20 -57 42 -60 50 -3 9 68 88
201 220 114 114 205 208 203 210 -7 7 -162 -133 -304 -273 l-133 -131 -30 34
c-23 27 -30 44 -30 77 0 23 6 51 14 62 21 30 226 229 356 346 157 140 246 227
239 233 -9 9 -303 -249 -476 -419 l-133 -129 0 103 0 104 147 142 c157 150
255 238 447 399 l118 100 81 -17 c101 -21 134 -21 181 -2 94 39 101 174 12
219 -17 9 -103 34 -191 57 -166 42 -293 80 -358 107 l-37 15 32 29 c78 69 168
161 168 171 0 11 -5 7 -133 -110 l-90 -81 -46 19 c-25 11 -58 25 -74 32 -15 7
-27 17 -27 23 0 7 64 70 142 141 218 196 233 211 227 217 -8 8 -255 -202 -378
-323 l-24 -23 -41 20 c-23 11 -56 32 -73 46 l-32 27 77 68 c42 37 93 85 113
107 19 21 73 73 120 114 190 168 291 270 204 206 -22 -16 -44 -34 -50 -40 -5
-6 -55 -50 -110 -97 -114 -98 -297 -267 -336 -310 -15 -16 -32 -29 -37 -29
-20 0 -32 38 -32 102 l0 63 77 73 c117 111 356 323 419 372 17 14 74 59 125
101 111 91 226 169 247 169 30 0 142 -24 142 -30 0 -4 -30 -31 -67 -60 -96
-76 -154 -130 -142 -130 6 0 65 41 131 90 66 50 125 90 131 90 7 0 30 -5 52
-10 158 -36 623 -90 950 -110 174 -11 997 -16 1013 -6 4 2 62 7 130 10 361 17
866 80 1065 132 33 9 61 13 64 10 3 -3 -20 -17 -50 -32 -31 -14 -61 -32 -68
-40 -6 -8 -15 -14 -19 -14 -6 0 -151 -92 -169 -107 -2 -1 -2 -6 2 -9 3 -3 55
22 114 57 223 129 345 191 404 204 52 11 182 56 197 67 8 8 12 6 12 -6 0 -9
-3 -16 -7 -16 -5 0 -49 -31 -100 -68 -51 -37 -133 -96 -183 -131 -50 -35 -89
-66 -86 -68 10 -10 330 194 464 295 23 18 304 166 380 201 1 0 2 -1 2 -4z
m-5062 -55 c29 -14 52 -27 52 -30 0 -8 -104 -106 -168 -159 l-53 -44 3 94 3
93 50 38 c28 21 53 37 56 35 3 -1 29 -13 57 -27z m155 -78 c37 -15 67 -31 68
-35 0 -4 -31 -35 -68 -69 -96 -85 -230 -206 -280 -252 l-43 -39 0 99 1 99 122
112 c67 62 124 112 127 113 3 0 35 -12 73 -28z m262 -94 c2 -2 -67 -62 -153
-135 -87 -72 -216 -186 -289 -252 -73 -67 -135 -121 -138 -121 -3 0 -4 39 -3
87 l3 87 140 128 c138 127 266 230 295 240 12 4 136 -25 145 -34z m98 -32 c29
-8 69 -17 90 -21 20 -3 37 -10 37 -14 0 -4 -63 -56 -140 -115 -77 -59 -150
-117 -163 -129 -31 -30 -67 -61 -188 -161 -57 -47 -151 -130 -209 -185 l-105
-100 -3 90 c-4 122 -33 87 357 430 103 90 260 219 268 219 3 0 28 -6 56 -14z
m-645 -1266 c17 -11 32 -21 32 -23 0 -2 -18 -21 -40 -42 l-40 -39 0 62 c0 34
3 62 8 62 4 0 22 -9 40 -20z m148 -74 c38 -17 71 -31 73 -32 1 -2 -28 -31 -65
-66 -38 -34 -97 -90 -131 -124 l-63 -61 0 111 0 111 52 47 c29 26 55 46 59 45
3 -1 36 -15 75 -31z m195 -78 c32 -13 59 -26 59 -30 0 -3 -26 -28 -57 -54 -55
-46 -220 -195 -305 -275 -87 -82 -78 -84 -78 21 l0 93 78 76 c98 97 212 191
230 191 8 0 41 -10 73 -22z m213 -70 c69 -19 112 -37 90 -38 -11 0 -183 -134
-264 -205 -74 -65 -249 -226 -330 -303 l-85 -81 -3 106 -3 106 38 40 c54 55
279 265 333 309 89 73 125 97 140 91 8 -3 46 -14 84 -25z m-544 -1407 c12 -8
11 -14 -10 -35 -33 -36 -40 -33 -40 19 0 48 1 49 50 16z m150 -101 c-5 -8 -52
-58 -104 -110 l-96 -95 0 88 c0 98 5 113 57 160 l35 33 58 -30 c45 -24 56 -34
50 -46z m137 -46 l55 -24 -104 -97 c-57 -54 -143 -137 -192 -185 -49 -49 -91
-88 -93 -88 -2 0 -3 43 -3 96 l0 96 119 120 c133 132 117 126 218 82z m243
-96 c0 -4 -57 -58 -127 -121 -71 -63 -198 -180 -283 -261 -85 -80 -158 -146
-162 -146 -5 0 -8 42 -8 93 l0 92 127 124 c71 68 167 159 215 202 l87 78 76
-27 c41 -15 75 -30 75 -34z m4630 -612 c-28 -50 -90 -111 -166 -164 -57 -39
-302 -157 -311 -149 -6 6 101 105 435 401 l67 60 3 -47 c3 -38 -3 -58 -28
-101z"/>
<path d="M5207 6226 c-46 -17 -66 -33 -78 -64 -6 -14 -9 -295 -9 -659 0 -692
-1 -682 57 -704 36 -14 1390 -19 1421 -6 12 6 32 26 44 45 34 56 25 203 -23
352 -46 141 -171 369 -266 484 -238 290 -633 511 -993 555 -104 13 -106 13
-153 -3z"/>
<path d="M4674 6070 c-120 -25 -197 -51 -308 -106 -339 -168 -577 -415 -725
-751 -73 -168 -105 -296 -122 -492 -23 -284 21 -541 136 -788 192 -412 614
-743 1060 -834 87 -18 144 -22 275 -22 191 0 314 19 490 75 163 52 402 196
543 327 145 134 305 387 372 586 58 171 97 443 76 522 -21 77 12 73 -767 73
-377 -1 -688 1 -690 3 -2 2 -5 307 -7 678 -2 560 -5 678 -16 695 -37 57 -148
68 -317 34z m86 -246 c0 -6 -55 -66 -140 -153 -25 -25 -97 -100 -160 -166
-169 -177 -689 -705 -694 -705 -6 0 31 131 57 200 18 48 47 83 246 284 124
126 294 291 378 366 146 133 154 138 225 158 83 23 88 24 88 16z m24 -111 c-4
-69 -10 -94 -27 -115 -26 -31 -443 -472 -642 -678 -77 -80 -194 -201 -259
-268 l-119 -123 7 91 c4 50 11 101 15 113 9 22 90 107 454 477 321 325 526
539 543 566 28 42 35 27 28 -63z m-315 0 c-24 -20 -169 -161 -322 -312 -153
-152 -281 -278 -284 -281 -3 -3 -2 6 2 20 20 70 187 295 287 386 72 67 193
153 261 185 34 17 69 34 77 39 32 17 21 -2 -21 -37z m321 -227 l0 -94 -129
-139 c-176 -189 -901 -918 -902 -907 0 5 -2 20 -4 34 -16 99 -16 96 21 141 34
40 303 324 459 484 39 39 111 116 160 170 87 95 387 405 392 405 2 0 3 -42 3
-94z m-1 -233 c1 -23 -4 -54 -10 -70 -6 -15 -88 -107 -183 -203 -94 -96 -248
-256 -341 -354 -94 -99 -203 -213 -244 -255 -40 -42 -101 -106 -134 -143 -33
-37 -63 -66 -67 -63 -3 2 -15 31 -25 64 l-18 60 38 46 c20 25 201 211 402 413
201 202 410 416 466 475 110 117 115 118 116 30z m-2 -218 l-5 -96 -106 -112
c-162 -173 -805 -821 -809 -816 -10 12 -37 92 -37 109 0 23 75 103 685 734
138 142 252 262 253 267 2 5 8 9 14 9 7 0 9 -33 5 -95z m3 -213 c0 -130 28
-94 -423 -543 -226 -225 -411 -409 -413 -409 -5 0 -64 100 -64 109 0 4 177
187 393 407 216 219 415 422 442 451 26 29 52 50 56 47 5 -3 9 -31 9 -62z m0
-254 l0 -93 -366 -368 -366 -369 -27 26 c-14 14 -34 38 -44 55 l-17 29 408
406 c224 223 408 406 410 406 1 0 2 -42 2 -92z m57 -123 c11 -8 39 -17 61 -21
l41 -6 -322 -322 c-467 -465 -461 -460 -485 -447 -12 6 -31 25 -43 42 l-22 31
369 369 c203 203 371 369 374 369 3 0 15 -7 27 -15z m1297 -52 c-22 -21 -69
-65 -105 -98 -35 -33 -175 -164 -309 -291 -135 -128 -265 -248 -290 -269 -25
-21 -59 -51 -76 -69 -17 -17 -86 -83 -154 -146 -68 -63 -144 -134 -169 -157
-43 -40 -49 -43 -101 -42 -116 2 -116 -1 37 149 138 136 211 205 423 400 63
58 134 125 160 150 154 151 428 391 460 403 8 3 49 6 90 6 l74 1 -40 -37z
m-967 14 c6 -6 -58 -73 -117 -122 -25 -21 -178 -168 -340 -327 -162 -160 -325
-320 -361 -355 l-66 -65 -29 16 c-34 18 -74 51 -74 61 0 4 181 187 402 407
l401 401 90 -6 c49 -3 91 -8 94 -10z m502 -11 c-13 -13 -100 -95 -194 -182
-173 -160 -513 -484 -730 -695 -66 -64 -130 -120 -143 -124 -21 -6 -117 18
-134 34 -16 14 772 772 953 918 80 65 89 68 208 70 l64 2 -24 -23z m198 -48
c-147 -127 -626 -575 -985 -921 l-92 -89 -67 12 c-37 6 -71 14 -76 17 -6 3 44
58 109 121 65 63 189 182 274 266 329 321 677 636 725 656 11 5 60 9 108 9
l88 1 -84 -72z m360 6 c-4 -37 -14 -78 -23 -92 -18 -27 -129 -134 -324 -312
-69 -63 -163 -151 -210 -195 -47 -45 -121 -114 -165 -155 -44 -41 -120 -114
-170 -162 -49 -48 -103 -92 -120 -98 -32 -12 -165 -30 -177 -23 -7 3 53 62
222 219 134 124 531 494 684 638 159 150 267 245 280 245 5 1 6 -28 3 -65z
m-803 48 c2 -4 -31 -39 -73 -77 -273 -246 -331 -302 -813 -773 l-106 -104 -61
32 c-34 18 -61 36 -61 40 0 6 655 650 805 791 105 99 106 99 212 99 50 0 94
-3 97 -8z m727 -304 c-22 -47 -57 -107 -78 -134 -53 -70 -542 -526 -593 -554
-13 -7 -56 -23 -94 -35 -39 -12 -80 -26 -91 -31 -33 -13 287 297 591 572 49
45 136 124 194 177 58 53 106 94 108 93 2 -2 -15 -42 -37 -88z m-141 -252 c0
-15 -115 -144 -188 -210 -92 -84 -198 -166 -214 -166 -5 0 12 19 39 41 26 23
117 108 201 190 145 140 162 156 162 145z"/>
</g>
</svg>
