<?xml version="1.0" standalone="no"?>
<!DOCTYPE svg PUBLIC "-//W3C//DTD SVG 20010904//EN"
 "http://www.w3.org/TR/2001/REC-SVG-20010904/DTD/svg10.dtd">
<svg version="1.0" xmlns="http://www.w3.org/2000/svg"
 width="1024.000000pt" height="1024.000000pt" viewBox="0 0 1024.000000 1024.000000"
 preserveAspectRatio="xMidYMid meet">

<g transform="translate(0.000000,1024.000000) scale(0.100000,-0.100000)"
fill="#000000" stroke="none">
<path d="M4055 8729 c-77 -9 -192 -52 -267 -100 -52 -34 -141 -125 -186 -192
-30 -44 -64 -124 -82 -192 -5 -22 -13 -45 -17 -51 -5 -8 -75 -15 -191 -21
l-183 -10 -33 -32 c-18 -18 -38 -49 -44 -69 -13 -47 0 -586 15 -622 14 -33 61
-80 93 -92 35 -13 1903 -11 1954 3 82 22 128 77 145 175 6 33 12 170 13 305 3
273 1 286 -59 314 -25 12 -76 18 -201 21 -114 4 -173 9 -187 18 -22 14 -24 18
-104 188 -41 86 -63 119 -116 172 -141 141 -346 210 -550 185z m198 -224 c32
-8 75 -24 96 -35 45 -22 111 -85 137 -130 10 -16 22 -30 26 -30 4 0 5 -7 2
-15 -4 -8 -1 -15 7 -15 7 0 9 -3 6 -7 -4 -3 -2 -12 4 -20 8 -9 8 -13 1 -13 -6
0 -18 15 -27 34 -26 53 -103 139 -153 168 -82 48 -215 70 -273 44 -10 -5 -16
-2 -16 9 0 8 2 13 4 11 2 -2 16 0 31 4 42 13 93 11 155 -5z m-38 -237 c33 -15
65 -76 65 -123 0 -76 -47 -134 -122 -150 -37 -9 -96 21 -119 59 -23 38 -25
115 -4 157 31 59 116 86 180 57z m343 -93 c-3 -3 -9 2 -12 12 -6 14 -5 15 5 6
7 -7 10 -15 7 -18z m-591 -1 c-3 -3 -12 -4 -19 -1 -8 3 -5 6 6 6 11 1 17 -2
13 -5z m850 -450 c-3 -3 -12 -4 -19 -1 -8 3 -5 6 6 6 11 1 17 -2 13 -5z m-842
-24 c-3 -5 -10 -10 -16 -10 -5 0 -9 5 -9 10 0 6 7 10 16 10 8 0 12 -4 9 -10z
m-289 -151 c-25 -15 -280 -16 -331 -2 -33 9 -5 11 155 12 145 0 190 -2 176
-10z m381 -101 c-3 -8 -6 -5 -6 6 -1 11 2 17 5 13 3 -3 4 -12 1 -19z"/>
<path d="M5412 8082 c-19 -13 -19 -441 0 -453 7 -5 162 -9 343 -9 354 0 369
-2 392 -52 20 -41 18 -990 -2 -1180 -4 -31 -1 -49 7 -55 22 -13 471 -3 486 11
10 10 13 93 12 387 -1 727 -5 888 -24 962 -27 108 -54 172 -101 236 -34 46
-57 66 -108 91 -112 55 -179 62 -607 67 -214 2 -391 0 -398 -5z m753 -231 c10
-17 -12 -21 -25 -6 -10 12 -10 15 3 15 9 0 18 -4 22 -9z m52 3 c-3 -3 -12 -4
-19 -1 -8 3 -5 6 6 6 11 1 17 -2 13 -5z"/>
<path d="M2377 8074 c-1 -1 -92 -4 -202 -7 -292 -8 -383 -33 -483 -135 -81
-83 -127 -188 -152 -347 -16 -101 -16 -4918 0 -5005 45 -248 220 -437 445
-481 94 -19 3367 -21 3386 -2 18 18 2 35 -121 129 -152 115 -246 192 -335 275
-41 38 -87 72 -102 76 -15 4 -215 8 -443 7 -467 0 -1901 -3 -1970 -3 -25 0
-93 -1 -152 -2 -112 -1 -164 6 -186 24 -27 22 -49 84 -56 157 -4 41 -6 624 -5
1295 2 671 3 1240 3 1265 -1 25 -2 261 -3 525 -1 264 0 739 1 1055 l3 576 26
49 c37 74 49 76 490 75 329 0 368 2 380 16 19 24 26 428 8 451 -11 12 -51 14
-272 11 -142 -1 -259 -3 -260 -4z m-662 -644 c3 -5 1 -10 -4 -10 -6 0 -11 5
-11 10 0 6 2 10 4 10 3 0 8 -4 11 -10z m95 -610 c0 -5 -2 -10 -4 -10 -3 0 -8
5 -11 10 -3 6 -1 10 4 10 6 0 11 -4 11 -10z m17 -46 c-3 -3 -12 -4 -19 -1 -8
3 -5 6 6 6 11 1 17 -2 13 -5z m93 -2114 c0 -5 -5 -10 -11 -10 -5 0 -7 5 -4 10
3 6 8 10 11 10 2 0 4 -4 4 -10z m-122 -392 c0 -92 -10 -112 -19 -37 -3 26 10
139 16 139 2 0 4 -46 3 -102z m102 -172 c0 -2 -7 -6 -15 -10 -8 -3 -15 -1 -15
4 0 6 7 10 15 10 8 0 15 -2 15 -4z m-110 -530 c0 -3 -4 -8 -10 -11 -5 -3 -10
-1 -10 4 0 6 5 11 10 11 6 0 10 -2 10 -4z m2785 -1106 c3 -5 1 -10 -4 -10 -6
0 -11 5 -11 10 0 6 2 10 4 10 3 0 8 -4 11 -10z m-215 -14 c0 -2 -7 -7 -16 -10
-8 -3 -12 -2 -9 4 6 10 25 14 25 6z m-2335 -26 c-3 -5 -12 -10 -18 -10 -7 0
-6 4 3 10 19 12 23 12 15 0z m1665 -40 c0 -5 -4 -10 -10 -10 -5 0 -10 5 -10
10 0 6 5 10 10 10 6 0 10 -4 10 -10z m540 6 c0 -3 -4 -8 -10 -11 -5 -3 -10 -1
-10 4 0 6 5 11 10 11 6 0 10 -2 10 -4z m25 -6 c3 -5 1 -10 -4 -10 -6 0 -11 5
-11 10 0 6 2 10 4 10 3 0 8 -4 11 -10z m110 0 c8 -13 -15 -13 -35 0 -12 8 -11
10 7 10 12 0 25 -4 28 -10z m-62 -7 c-7 -2 -19 -2 -25 0 -7 3 -2 5 12 5 14 0
19 -2 13 -5z m34 -29 c-3 -3 -12 -4 -19 -1 -8 3 -5 6 6 6 11 1 17 -2 13 -5z
m-1047 -34 c0 -5 -2 -10 -4 -10 -3 0 -8 5 -11 10 -3 6 -1 10 4 10 6 0 11 -4
11 -10z"/>
<path d="M3364 6991 c-28 -13 -77 -60 -160 -152 -65 -74 -166 -186 -223 -249
-58 -63 -108 -119 -113 -124 -11 -13 -47 22 -124 120 -65 84 -110 114 -171
114 -43 0 -110 -38 -133 -75 -47 -77 -35 -153 38 -235 27 -30 97 -116 156
-190 59 -74 124 -145 144 -157 40 -24 111 -31 155 -14 14 5 87 81 163 167 136
155 256 288 403 448 113 123 133 188 89 276 -41 81 -135 111 -224 71z m-414
-661 c0 -5 -4 -10 -10 -10 -5 0 -10 5 -10 10 0 6 5 10 10 10 6 0 10 -4 10 -10z"/>
<path d="M3945 6690 c-125 -27 -169 -209 -74 -297 61 -56 35 -54 867 -52 422
1 779 -2 794 -6 36 -9 128 18 155 47 33 35 53 91 53 148 0 62 -18 100 -65 136
l-36 27 -832 2 c-458 1 -846 -1 -862 -5z"/>
<path d="M6198 6165 c-276 -33 -551 -132 -793 -284 -416 -262 -762 -715 -894
-1171 -85 -292 -105 -679 -50 -980 66 -368 227 -698 485 -1000 288 -337 640
-557 1074 -671 164 -43 308 -60 515 -60 498 0 871 123 1285 425 143 104 364
344 480 521 187 286 304 684 317 1080 12 383 -49 687 -202 1000 -106 218 -293
462 -471 613 -89 77 -275 210 -368 264 -169 99 -427 198 -616 237 -202 42
-538 53 -762 26z m322 -155 c0 -5 -4 -10 -10 -10 -5 0 -10 5 -10 10 0 6 5 10
10 10 6 0 10 -4 10 -10z m160 -146 c0 -8 -5 -12 -10 -9 -6 4 -8 11 -5 16 9 14
15 11 15 -7z m88 -149 c135 -18 143 -19 262 -57 350 -111 670 -352 879 -666
86 -128 162 -295 205 -453 9 -30 25 -116 37 -190 34 -214 19 -477 -41 -697
-126 -459 -457 -848 -875 -1029 -381 -166 -754 -196 -1150 -94 -374 96 -722
352 -927 683 -120 193 -198 389 -236 593 -24 130 -23 466 1 595 39 208 129
424 253 607 126 186 208 272 383 405 205 156 550 287 816 311 103 9 292 6 393
-8z m-1784 -622 c-40 -63 -117 -201 -135 -243 -21 -54 -24 -41 -5 23 20 67
132 247 154 247 2 0 -4 -12 -14 -27z m3135 -29 c9 -20 9 -25 0 -22 -14 5 -32
48 -20 48 4 0 13 -12 20 -26z m17 -61 c-10 -10 -19 5 -10 18 6 11 8 11 12 0 2
-7 1 -15 -2 -18z m-3512 -839 c3 -8 2 -12 -4 -9 -6 3 -10 10 -10 16 0 14 7 11
14 -7z m3830 -549 c3 -8 1 -15 -4 -15 -6 0 -10 7 -10 15 0 8 2 15 4 15 2 0 6
-7 10 -15z m-244 -444 c0 -6 -4 -13 -10 -16 -5 -3 -28 -36 -50 -73 -46 -78
-112 -156 -103 -123 3 12 9 21 13 21 4 0 36 45 71 100 59 92 79 115 79 91z
m-3197 -278 c-7 -2 -19 -2 -25 0 -7 3 -2 5 12 5 14 0 19 -2 13 -5z"/>
<path d="M6460 5418 c-24 -13 -58 -40 -74 -61 l-31 -39 -3 -635 c-2 -594 -1
-637 15 -663 10 -16 126 -133 258 -260 132 -128 293 -286 358 -352 156 -158
220 -186 323 -139 112 51 154 187 89 296 -12 22 -130 143 -262 270 -131 126
-269 260 -308 297 l-70 67 -2 541 c-2 562 -3 582 -45 636 -50 63 -167 83 -248
42z m250 -1481 c8 -7 26 -26 40 -41 l25 -29 -27 19 c-15 10 -28 23 -28 27 0 5
-3 6 -7 4 -5 -2 -19 9 -32 26 -20 24 -21 28 -5 19 10 -7 26 -17 34 -25z m125
-117 c3 -5 1 -10 -4 -10 -6 0 -11 5 -11 10 0 6 2 10 4 10 3 0 8 -4 11 -10z
m152 -12 c-3 -8 -6 -5 -6 6 -1 11 2 17 5 13 3 -3 4 -12 1 -19z m-67 -68 c0 -5
-2 -10 -4 -10 -3 0 -8 5 -11 10 -3 6 -1 10 4 10 6 0 11 -4 11 -10z"/>
<path d="M3375 5796 c-28 -12 -231 -223 -417 -434 -42 -48 -82 -87 -89 -87 -6
0 -48 45 -93 99 -95 116 -119 136 -174 143 -55 7 -85 -2 -126 -38 -66 -57 -83
-159 -40 -240 19 -38 270 -353 313 -393 25 -24 42 -31 89 -34 76 -5 104 10
180 95 157 179 318 360 430 483 143 158 166 197 160 276 -5 58 -34 101 -90
130 -33 17 -103 18 -143 0z m-696 -545 c-15 -5 -22 6 -14 19 6 9 10 9 16 -1 5
-8 4 -15 -2 -18z"/>
<path d="M3920 5529 c-46 -10 -94 -62 -116 -124 -17 -52 -17 -57 -1 -109 21
-67 60 -108 117 -125 61 -18 529 -16 575 3 30 13 78 69 167 195 39 56 47 94
25 122 -30 39 -50 41 -398 43 -186 0 -352 -2 -369 -5z"/>
<path d="M3359 4611 c-32 -18 -283 -272 -430 -436 -29 -33 -58 -60 -63 -60 -5
0 -41 43 -80 95 -80 106 -126 140 -194 140 -100 0 -164 -62 -169 -164 -4 -76
6 -95 168 -308 130 -172 172 -214 224 -224 79 -15 127 13 226 129 34 40 166
183 295 319 128 135 242 261 254 280 38 63 19 159 -44 218 -37 33 -134 39
-187 11z"/>
<path d="M3869 4337 c-73 -48 -90 -145 -41 -238 42 -80 64 -89 229 -93 102 -2
145 1 166 11 l27 14 0 118 c0 65 3 132 6 148 11 57 -7 63 -190 63 -153 0 -165
-1 -197 -23z m226 -57 c3 -5 1 -10 -4 -10 -6 0 -11 5 -11 10 0 6 2 10 4 10 3
0 8 -4 11 -10z m-30 -49 c3 -5 1 -12 -5 -16 -5 -3 -10 1 -10 9 0 18 6 21 15 7z"/>
</g>
</svg>
