<?xml version="1.0" standalone="no"?>
<!DOCTYPE svg PUBLIC "-//W3C//DTD SVG 20010904//EN"
 "http://www.w3.org/TR/2001/REC-SVG-20010904/DTD/svg10.dtd">
<svg version="1.0" xmlns="http://www.w3.org/2000/svg"
 width="1024.000000pt" height="1024.000000pt" viewBox="0 0 1024.000000 1024.000000"
 preserveAspectRatio="xMidYMid meet">

<g transform="translate(0.000000,1024.000000) scale(0.100000,-0.100000)"
fill="#000000" stroke="none">
<path d="M6499 8362 c-105 -28 -190 -87 -374 -258 -231 -215 -905 -890 -1456
-1458 -249 -257 -548 -559 -664 -670 -115 -110 -389 -378 -607 -595 -304 -302
-403 -406 -423 -445 -31 -64 -137 -363 -412 -1171 -118 -346 -235 -689 -260
-762 -35 -101 -44 -140 -39 -167 14 -75 86 -139 173 -152 34 -5 70 3 195 44
84 28 320 105 523 171 327 106 508 164 895 286 58 18 199 63 313 100 l209 68
711 706 c390 388 1155 1151 1700 1694 1078 1078 1026 1020 1050 1162 9 55 8
75 -10 149 -24 94 -44 129 -158 265 -190 228 -879 897 -997 969 -122 73 -252
96 -369 64z m187 -247 c81 -24 159 -83 325 -246 86 -85 213 -209 283 -277 150
-146 431 -442 466 -492 35 -50 33 -140 -4 -204 -62 -106 -350 -446 -378 -446
-5 0 -187 177 -404 393 -218 215 -399 394 -402 397 -4 3 -45 45 -92 93 l-84
87 39 40 c21 22 34 40 28 40 -7 0 -24 -16 -39 -35 -15 -20 -30 -34 -34 -33 -7
3 -152 132 -186 165 -10 10 2 26 58 80 38 38 84 86 101 108 17 22 -18 -7 -76
-65 l-107 -104 -55 54 c-30 30 -54 58 -53 61 5 14 294 282 343 319 108 82 167
96 271 65z m-146 -1189 c618 -618 630 -630 615 -653 -9 -13 -59 -68 -111 -123
l-96 -100 -37 32 c-20 17 -256 243 -525 502 -269 259 -546 525 -615 592 l-126
121 95 99 c52 54 109 113 125 131 17 18 33 32 37 30 4 -1 291 -285 638 -631z
m-960 85 l105 -99 -870 -874 c-478 -480 -940 -941 -1025 -1025 l-155 -151
-140 25 c-77 14 -159 27 -182 30 -24 3 -43 6 -43 7 0 1 226 226 503 501 276
274 767 766 1091 1092 323 326 593 593 600 593 6 0 58 -45 116 -99z m1135 -81
c3 -6 -1 -7 -9 -4 -18 7 -21 14 -7 14 6 0 13 -4 16 -10z m-616 -414 l232 -234
-25 -40 c-44 -69 -1738 -1781 -1955 -1974 l-53 -48 -107 0 c-89 0 -318 23
-326 32 -20 24 -25 66 -25 200 0 161 12 269 34 299 18 27 1977 1999 1985 1999
4 0 112 -105 240 -234z m-902 -202 c-3 -3 -12 -4 -19 -1 -8 3 -5 6 6 6 11 1
17 -2 13 -5z m1492 -360 c45 -47 81 -91 81 -97 0 -6 -110 -122 -245 -257 -135
-135 -245 -243 -245 -240 0 3 25 57 56 120 75 154 145 312 141 317 -4 3 -18
-26 -158 -325 l-66 -144 -183 -184 c-101 -101 -184 -183 -186 -181 -1 1 15 36
35 77 72 147 153 331 149 336 -3 2 -11 -10 -18 -28 -8 -18 -48 -106 -91 -195
-43 -90 -81 -173 -84 -185 -6 -20 -384 -403 -390 -396 -2 2 22 57 52 123 78
171 84 185 79 185 -6 0 -88 -172 -128 -267 -29 -69 -42 -84 -234 -272 -112
-110 -204 -196 -204 -193 0 4 8 21 18 37 40 66 252 539 269 600 13 44 -8 3
-70 -140 -218 -503 -231 -526 -397 -690 -78 -77 -182 -184 -231 -237 -48 -53
-91 -93 -93 -89 -17 27 -48 438 -35 461 4 8 318 324 696 702 378 377 827 830
998 1006 l310 320 46 -39 c26 -22 83 -78 128 -125z m-2609 -88 c0 -3 -4 -8
-10 -11 -5 -3 -10 -1 -10 4 0 6 5 11 10 11 6 0 10 -2 10 -4z m2903 -41 c-3 -9
-8 -14 -10 -11 -3 3 -2 9 2 15 9 16 15 13 8 -4z m-2363 -279 c0 -2 -8 -10 -17
-17 -16 -13 -17 -12 -4 4 13 16 21 21 21 13z m1060 -185 c0 -5 -7 -12 -16 -15
-14 -5 -15 -4 -4 9 14 17 20 19 20 6z m-1445 -51 c3 -5 1 -10 -4 -10 -6 0 -11
5 -11 10 0 6 2 10 4 10 3 0 8 -4 11 -10z m-955 -344 c0 -3 -4 -8 -10 -11 -5
-3 -10 -1 -10 4 0 6 5 11 10 11 6 0 10 -2 10 -4z m46 -281 c95 -19 187 -35
203 -35 16 0 40 -4 53 -9 23 -9 23 -11 26 -182 6 -291 35 -394 123 -440 32
-16 70 -19 288 -25 l250 -7 5 -26 c3 -14 8 -69 11 -121 9 -140 23 -268 30
-280 14 -23 -24 -42 -204 -99 -263 -84 -553 -171 -572 -171 -8 0 -101 82 -205
183 -104 100 -253 241 -331 314 l-141 132 79 233 c44 128 103 303 131 388 48
144 63 180 75 180 3 0 83 -16 179 -35z m-561 -775 c3 -5 1 -10 -4 -10 -6 0
-11 5 -11 10 0 6 2 10 4 10 3 0 8 -4 11 -10z m58 -258 l48 -49 -56 -37 c-32
-21 -54 -40 -51 -43 3 -4 14 1 23 9 10 8 35 25 56 38 l38 22 77 -74 c42 -40
110 -103 151 -139 l74 -67 -51 -86 c-28 -47 -49 -86 -47 -86 5 0 64 93 84 133
8 15 17 27 21 27 7 0 114 -89 118 -99 2 -7 -118 -53 -187 -71 -24 -6 -51 -15
-60 -20 -17 -9 -205 -70 -215 -70 -4 0 5 18 18 39 47 73 193 353 171 326 -9
-11 -46 -76 -82 -145 -36 -69 -81 -150 -100 -181 -33 -55 -34 -55 -131 -87
-128 -41 -142 -45 -142 -35 0 4 34 51 76 103 88 111 184 245 184 256 0 4 -35
-39 -78 -97 -42 -57 -106 -141 -142 -186 -58 -73 -65 -79 -68 -57 -3 22 13 85
53 209 26 82 46 151 50 172 2 12 19 63 38 115 19 51 46 123 59 161 12 37 23
67 23 67 1 0 22 -22 48 -48z m-433 -906 c0 -3 -4 -8 -10 -11 -5 -3 -10 -1 -10
4 0 6 5 11 10 11 6 0 10 -2 10 -4z"/>
<path d="M6440 7598 c-19 -24 -26 -37 -17 -29 19 15 61 71 54 71 -2 0 -19 -19
-37 -42z"/>
<path d="M6284 7588 l-29 -33 33 29 c30 28 37 36 29 36 -2 0 -16 -15 -33 -32z"/>
<path d="M6374 7518 l-19 -23 23 19 c21 18 27 26 19 26 -2 0 -12 -10 -23 -22z"/>
<path d="M6600 7335 c-13 -14 -21 -27 -18 -30 2 -3 14 9 27 25 26 37 23 39 -9
5z"/>
<path d="M6910 7080 c-6 -11 -8 -20 -6 -20 3 0 10 9 16 20 6 11 8 20 6 20 -3
0 -10 -9 -16 -20z"/>
<path d="M7465 7035 c-28 -30 -113 -120 -189 -200 -76 -80 -137 -148 -134
-151 5 -4 356 367 372 394 14 24 0 11 -49 -43z"/>
<path d="M7055 7018 c-20 -24 -50 -65 -66 -93 -19 -32 -21 -40 -7 -21 113 146
150 203 73 114z"/>
<path d="M7402 6772 c-89 -86 -162 -160 -162 -163 0 -4 17 10 38 30 20 20 71
67 112 105 66 60 188 187 178 185 -1 0 -76 -71 -166 -157z"/>
<path d="M7730 6910 c-6 -11 -8 -20 -6 -20 3 0 10 9 16 20 6 11 8 20 6 20 -3
0 -10 -9 -16 -20z"/>
<path d="M7084 6853 c-24 -27 -44 -52 -44 -57 0 -5 1 -7 3 -5 1 2 24 28 52 57
27 28 46 52 41 52 -4 0 -28 -21 -52 -47z"/>
<path d="M7355 6558 l-40 -43 43 40 c39 36 47 45 39 45 -2 0 -21 -19 -42 -42z"/>
<path d="M5625 4909 c-4 -6 -5 -12 -2 -15 2 -3 7 2 10 11 7 17 1 20 -8 4z"/>
<path d="M5345 4829 c-4 -6 -5 -12 -2 -15 2 -3 7 2 10 11 7 17 1 20 -8 4z"/>
<path d="M5034 4584 c-48 -113 -133 -328 -130 -331 2 -2 15 25 30 59 14 35 48
117 76 182 27 66 48 122 45 124 -2 2 -11 -13 -21 -34z"/>
<path d="M4711 4127 c-63 -139 -125 -272 -139 -297 -14 -26 -18 -39 -9 -30 25
23 274 567 264 576 -2 2 -54 -110 -116 -249z"/>
<path d="M4886 4225 c-9 -26 -7 -32 5 -12 6 10 9 21 6 23 -2 3 -7 -2 -11 -11z"/>
<path d="M4841 4109 c-6 -18 -9 -34 -7 -36 2 -2 9 10 15 28 6 18 9 34 7 36 -2
2 -9 -10 -15 -28z"/>
<path d="M4806 4025 c-9 -26 -7 -32 5 -12 6 10 9 21 6 23 -2 3 -7 -2 -11 -11z"/>
<path d="M4782 3965 c-17 -37 -14 -45 4 -12 9 16 14 31 11 33 -2 2 -9 -7 -15
-21z"/>
<path d="M2734 3354 c-49 -47 -66 -68 -39 -46 51 41 143 132 134 132 -3 0 -45
-39 -95 -86z"/>
<path d="M3053 3308 c-28 -31 -128 -175 -106 -153 13 12 143 185 139 185 -1 0
-16 -15 -33 -32z"/>
</g>
</svg>
