<?xml version="1.0" standalone="no"?>
<!DOCTYPE svg PUBLIC "-//W3C//DTD SVG 20010904//EN"
 "http://www.w3.org/TR/2001/REC-SVG-20010904/DTD/svg10.dtd">
<svg version="1.0" xmlns="http://www.w3.org/2000/svg"
 width="1024.000000pt" height="1024.000000pt" viewBox="0 0 1024.000000 1024.000000"
 preserveAspectRatio="xMidYMid meet">

<g transform="translate(0.000000,1024.000000) scale(0.100000,-0.100000)"
fill="#000000" stroke="none">
<path d="M4470 8670 c-120 -18 -220 -77 -279 -166 -55 -83 -66 -137 -65 -331
l0 -172 -490 -3 c-451 -3 -495 -5 -541 -22 -105 -40 -184 -115 -226 -216 -21
-49 -23 -75 -27 -249 -6 -283 15 -361 125 -461 50 -45 146 -90 194 -90 33 0
46 -27 53 -107 3 -43 24 -298 46 -568 57 -690 109 -1328 115 -1405 3 -36 12
-137 20 -225 23 -248 93 -1054 105 -1210 37 -484 80 -634 218 -774 75 -76 145
-115 237 -132 44 -9 361 -10 1186 -5 1237 7 1181 4 1303 69 132 70 229 216
266 399 23 113 108 968 200 2014 11 126 25 276 30 334 12 119 76 845 90 1020
50 611 48 599 95 600 31 0 125 47 173 87 32 26 55 59 81 112 l36 76 0 225 c0
210 -2 229 -22 280 -31 75 -99 150 -172 189 -105 55 -162 61 -643 61 -406 0
-430 1 -423 18 14 33 17 209 6 297 -7 50 -22 109 -33 132 -51 103 -194 201
-323 221 -67 11 -1264 13 -1335 2z m102 -258 c-23 -27 -78 -88 -123 -137 l-82
-88 7 69 c5 51 15 81 37 115 38 60 55 67 192 88 5 0 -9 -21 -31 -47z m201 35
c-20 -34 -264 -337 -310 -386 -44 -48 -55 -54 -70 -45 -14 9 -19 27 -21 81
l-3 69 138 147 138 147 68 0 c54 0 66 -3 60 -13z m1016 4 c57 -11 91 -37 119
-91 19 -38 22 -60 22 -152 0 -124 -14 -173 -55 -188 -16 -6 -206 -10 -488 -10
l-461 0 117 117 c64 64 114 119 112 122 -3 2 -47 -36 -98 -85 -151 -146 -155
-148 -265 -154 -52 -3 -96 -2 -98 1 -2 4 6 15 17 25 34 30 201 225 197 229 -2
2 -59 -54 -126 -125 l-122 -129 -103 -3 c-56 -2 -104 -2 -106 -1 -1 1 28 39
66 85 38 46 120 147 182 226 l113 142 466 0 c257 -1 487 -5 511 -9z m132 -38
c13 -16 12 -17 -3 -4 -10 7 -18 15 -18 17 0 8 8 3 21 -13z m-606 -453 c3 -5 1
-10 -4 -10 -6 0 -11 5 -11 10 0 6 2 10 4 10 3 0 8 -4 11 -10z m-1465 -120 c0
-5 -5 -10 -11 -10 -5 0 -7 5 -4 10 3 6 8 10 11 10 2 0 4 -4 4 -10z m-560 -64
c0 -3 -6 -11 -13 -18 -7 -7 -28 -33 -47 -58 -19 -25 -62 -78 -95 -118 l-60
-73 -3 66 c-5 111 38 178 126 196 44 8 92 11 92 5z m153 -29 c-11 -18 -69 -96
-129 -173 -60 -77 -131 -172 -159 -212 -27 -39 -53 -71 -56 -72 -8 0 -29 104
-29 144 0 38 6 47 144 214 l109 132 70 0 69 0 -19 -33z m186 16 c-7 -10 -30
-38 -50 -63 -19 -25 -104 -135 -187 -246 -159 -211 -195 -254 -211 -254 -13 0
-71 50 -71 61 0 10 100 147 210 288 42 53 98 126 125 164 l49 67 74 0 c69 0
74 -1 61 -17z m3348 1 c82 -5 109 -10 135 -27 74 -51 87 -96 88 -290 0 -119
-3 -143 -20 -177 -29 -57 -76 -76 -173 -71 -28 1 -28 1 32 71 67 77 96 118 89
125 -2 2 -33 -30 -69 -71 -112 -132 -115 -134 -220 -133 -49 1 -89 2 -89 3 0
0 45 47 100 103 55 56 100 108 100 114 0 7 -51 -37 -112 -98 -105 -102 -116
-110 -162 -116 -65 -9 -146 -9 -146 0 0 4 33 40 72 80 40 40 69 73 66 73 -4 0
-47 -34 -95 -75 -48 -41 -94 -76 -102 -77 -39 -4 -201 -2 -201 2 0 3 32 33 70
68 80 72 97 107 20 40 -28 -23 -71 -60 -97 -81 l-46 -38 -94 5 c-52 3 -97 7
-100 9 -2 3 27 33 66 67 38 34 72 69 76 78 5 13 1 12 -17 -4 -13 -11 -56 -49
-95 -83 l-72 -63 -122 -3 -122 -3 76 76 c88 87 96 110 11 33 -109 -100 -108
-100 -214 -101 -52 -1 -98 -1 -102 -1 -3 1 37 43 90 95 53 52 95 97 92 99 -3
3 -54 -40 -113 -94 l-109 -99 -106 0 -106 0 59 60 c33 33 56 60 51 60 -4 0
-40 -27 -80 -60 l-73 -60 -106 0 c-59 0 -107 2 -107 5 0 3 30 34 68 70 37 35
64 64 60 65 -3 0 -44 -31 -90 -70 l-83 -70 -112 0 -111 0 69 67 c38 36 67 68
65 71 -3 2 -42 -28 -88 -67 l-83 -71 -125 0 -125 0 101 103 c105 107 131 137
119 137 -4 0 -61 -53 -127 -117 l-120 -118 -114 -5 c-63 -3 -114 -3 -114 -1 0
2 47 53 105 113 58 61 103 113 100 116 -3 3 -59 -47 -124 -111 l-118 -117 -64
-1 c-35 0 -77 -2 -94 -3 -16 -2 -34 -1 -39 2 -4 2 23 35 60 73 38 38 65 69 60
69 -4 0 -42 -31 -84 -70 l-77 -70 -83 0 c-99 0 -99 -3 16 105 45 42 82 82 82
87 0 6 -36 -23 -81 -63 -149 -136 -135 -130 -286 -127 l-131 3 127 153 c116
139 170 212 157 212 -2 0 -67 -75 -143 -166 -76 -91 -145 -174 -155 -185 -14
-16 -30 -19 -102 -19 -47 0 -86 3 -86 6 0 3 30 45 67 92 37 48 103 134 147
192 44 58 112 146 152 195 l72 90 1604 -2 c882 -1 1649 -5 1705 -9z m-3750
-616 c-3 -8 -6 -5 -6 6 -1 11 2 17 5 13 3 -3 4 -12 1 -19z m40 0 c-3 -8 -6 -5
-6 6 -1 11 2 17 5 13 3 -3 4 -12 1 -19z m1883 17 c0 -7 -30 -13 -34 -7 -3 4 4
9 15 9 10 1 19 0 19 -2z m-1005 -25 c3 -6 -1 -7 -9 -4 -18 7 -21 14 -7 14 6 0
13 -4 16 -10z m2335 0 c0 -5 -2 -10 -4 -10 -3 0 -8 5 -11 10 -3 6 -1 10 4 10
6 0 11 -4 11 -10z m-3000 -183 c0 -2 -9 -12 -20 -22 -19 -18 -20 -17 -20 3 0
15 6 22 20 22 11 0 20 -2 20 -3z m260 -5 c0 -7 -152 -196 -246 -306 l-34 -40
0 35 c-1 19 -5 81 -10 139 l-9 105 37 38 36 37 113 0 c62 0 113 -4 113 -8z
m3060 -2 c8 -5 15 -13 16 -17 0 -4 5 -17 9 -28 5 -11 2 -98 -8 -210 -9 -104
-31 -343 -47 -530 -17 -187 -35 -389 -40 -450 -14 -170 -48 -553 -65 -730 -8
-88 -28 -315 -45 -505 -17 -190 -37 -415 -45 -500 -8 -85 -24 -265 -35 -400
-44 -533 -60 -618 -132 -696 -45 -49 -140 -90 -226 -97 -44 -3 -52 -2 -47 11
3 8 53 82 111 164 58 81 104 153 102 158 -2 6 -57 -64 -122 -155 -73 -103
-128 -170 -143 -176 -27 -10 -133 -13 -133 -3 0 3 28 45 63 93 95 130 149 212
144 218 -3 2 -26 -24 -51 -59 -25 -34 -78 -107 -117 -160 l-72 -98 -398 0
c-220 0 -399 3 -399 7 0 3 26 40 58 82 78 102 105 141 100 146 -2 3 -47 -49
-99 -115 l-94 -120 -137 0 c-76 0 -138 4 -138 8 0 5 10 17 21 28 28 25 121
141 143 179 19 31 -14 -4 -130 -139 l-60 -71 -112 -3 c-62 -1 -112 0 -112 2 0
3 34 49 75 101 41 53 80 105 85 116 16 29 -5 23 -25 -8 -27 -40 -129 -165
-157 -191 -23 -21 -32 -22 -136 -20 l-111 3 62 71 c73 84 132 164 120 163 -4
0 -23 -19 -41 -42 -19 -23 -66 -77 -105 -119 l-71 -78 -117 0 c-107 0 -146 8
-119 25 11 7 136 163 195 244 58 80 17 48 -51 -39 -32 -41 -82 -103 -111 -138
-29 -35 -53 -67 -53 -72 0 -11 -56 5 -87 25 -13 9 -23 20 -21 25 2 5 42 56 89
112 102 123 149 185 131 174 -11 -7 -143 -158 -214 -245 l-26 -33 -31 42 c-37
51 -68 145 -77 233 l-7 67 64 82 c34 46 79 102 98 124 20 23 44 57 54 75 17
32 16 31 -24 -11 -23 -25 -76 -90 -118 -144 l-76 -100 -6 70 c-4 38 -7 99 -8
135 -1 60 2 68 32 105 31 36 143 180 176 225 8 11 11 22 8 25 -5 5 -45 -42
-172 -207 l-50 -64 -11 118 -12 119 26 44 c15 24 64 95 110 158 45 63 82 118
82 121 0 18 -37 -27 -122 -147 -51 -70 -95 -128 -98 -128 -4 0 -10 49 -14 109
l-7 109 31 43 c17 24 48 69 70 99 99 138 121 172 116 177 -2 3 -53 -61 -113
-142 l-108 -146 -7 53 c-4 29 -10 91 -13 138 -3 47 -9 121 -14 165 -6 44 -10
104 -10 134 -1 50 2 58 52 120 66 84 97 126 127 175 45 74 1 26 -86 -94 -47
-66 -90 -122 -94 -125 -9 -5 -16 41 -26 157 l-7 76 65 84 c81 103 163 227 156
233 -3 3 -13 -7 -23 -22 -50 -76 -194 -263 -198 -256 -3 4 -8 52 -12 105 l-7
97 59 78 c94 125 155 214 150 219 -5 5 -54 -54 -120 -146 -26 -36 -58 -78 -71
-94 l-24 -28 -7 102 c-7 97 -6 103 16 133 111 150 216 307 206 307 -7 0 -127
-164 -193 -264 -34 -50 -40 -39 -49 81 l-7 93 39 53 c126 166 193 261 188 266
-4 3 -9 1 -13 -5 -4 -6 -54 -73 -112 -149 l-105 -138 -12 124 -11 124 44 65
c25 36 72 103 104 149 33 46 57 87 54 90 -3 3 -14 -5 -23 -18 -64 -96 -174
-240 -180 -237 -4 3 -8 43 -10 89 l-2 83 78 100 c119 150 136 174 126 174 -5
0 -54 -57 -109 -126 l-99 -126 -7 54 c-4 29 -8 87 -10 129 l-3 76 60 76 c120
153 157 202 166 222 15 30 -52 -46 -146 -167 -95 -123 -92 -124 -97 29 -1 62
2 86 13 100 9 10 49 57 90 104 41 47 103 122 139 167 l65 81 1505 0 c932 1
1511 -3 1520 -9z m-3405 -1050 c-3 -5 -12 -10 -18 -10 -7 0 -6 4 3 10 19 12
23 12 15 0z m120 -490 c3 -5 1 -10 -4 -10 -6 0 -11 5 -11 10 0 6 2 10 4 10 3
0 8 -4 11 -10z m140 -1410 c3 -5 1 -10 -4 -10 -6 0 -11 5 -11 10 0 6 2 10 4
10 3 0 8 -4 11 -10z m540 -1279 c-3 -6 -11 -11 -16 -11 -5 0 -4 6 3 14 14 16
24 13 13 -3z m1830 -9 c-3 -3 -11 0 -18 7 -9 10 -8 11 6 5 10 -3 15 -9 12 -12z
m-1830 -22 c3 -5 1 -10 -4 -10 -6 0 -11 5 -11 10 0 6 2 10 4 10 3 0 8 -4 11
-10z m265 -20 c0 -5 -2 -10 -4 -10 -3 0 -8 5 -11 10 -3 6 -1 10 4 10 6 0 11
-4 11 -10z"/>
<path d="M4165 6426 c-13 -13 -27 -37 -31 -52 -7 -27 27 -633 66 -1189 29
-410 47 -701 70 -1135 27 -501 24 -476 65 -517 46 -46 94 -46 140 0 19 19 36
48 40 69 4 20 -3 204 -14 409 -25 440 -42 742 -76 1389 -56 1048 -52 1010
-105 1037 -14 7 -49 13 -78 13 -43 0 -58 -5 -77 -24z m139 -1002 c3 -8 2 -12
-4 -9 -6 3 -10 10 -10 16 0 14 7 11 14 -7z m26 -508 c0 -3 -4 -8 -10 -11 -5
-3 -10 -1 -10 4 0 6 5 11 10 11 6 0 10 -2 10 -4z"/>
<path d="M5068 6434 c-18 -9 -31 -27 -37 -52 -8 -32 -28 -2110 -25 -2622 1
-177 9 -211 56 -244 47 -33 129 -13 155 37 20 39 21 83 34 1567 11 1164 11
1247 -5 1278 -9 18 -28 37 -42 42 -37 14 -105 11 -136 -6z m32 -1484 c0 -5 -2
-10 -4 -10 -3 0 -8 5 -11 10 -3 6 -1 10 4 10 6 0 11 -4 11 -10z"/>
<path d="M5972 6440 c-46 -19 -52 -55 -93 -629 -156 -2165 -154 -2136 -145
-2196 18 -118 138 -152 202 -58 29 43 28 39 69 623 43 608 95 1348 130 1827
23 317 24 356 11 388 -9 21 -26 39 -41 45 -32 12 -102 12 -133 0z m38 -430 c0
-5 -5 -10 -11 -10 -5 0 -7 5 -4 10 3 6 8 10 11 10 2 0 4 -4 4 -10z"/>
<path d="M3863 4603 c-154 -209 -211 -295 -185 -280 17 12 184 243 198 276 16
38 14 39 -13 4z"/>
<path d="M3978 3273 c-34 -43 -89 -109 -120 -147 -32 -38 -58 -76 -58 -84 0
-8 38 31 84 88 86 103 171 220 162 220 -2 0 -33 -35 -68 -77z"/>
</g>
</svg>
