<?xml version="1.0" encoding="UTF-8"?>
<svg width="24" height="24" viewBox="0 0 24 24" fill="none" xmlns="http://www.w3.org/2000/svg">
  <path d="M6.5 6.5H3.5C2.95 6.5 2.5 6.95 2.5 7.5V16.5C2.5 17.05 2.95 17.5 3.5 17.5H6.5C7.05 17.5 7.5 17.05 7.5 16.5V7.5C7.5 6.95 7.05 6.5 6.5 6.5Z" stroke="currentColor" stroke-width="2" stroke-linecap="round" stroke-linejoin="round"/>
  <path d="M20.5 6.5H17.5C16.95 6.5 16.5 6.95 16.5 7.5V16.5C16.5 17.05 16.95 17.5 17.5 17.5H20.5C21.05 17.5 21.5 17.05 21.5 16.5V7.5C21.5 6.95 21.05 6.5 20.5 6.5Z" stroke="currentColor" stroke-width="2" stroke-linecap="round" stroke-linejoin="round"/>
  <path d="M7.5 12H16.5" stroke="currentColor" stroke-width="2" stroke-linecap="round" stroke-linejoin="round"/>
</svg>