<?xml version="1.0" encoding="UTF-8"?>
<svg width="24" height="24" viewBox="0 0 24 24" fill="none" xmlns="http://www.w3.org/2000/svg">
  <path d="M12 4V20" stroke="currentColor" stroke-width="2" stroke-linecap="round"/>
  <path d="M12 4C8 4 5 6 4 10C3 14 5 18 6 20" stroke="currentColor" stroke-width="2" stroke-linecap="round"/>
  <path d="M12 4C16 4 19 6 20 10C21 14 19 18 18 20" stroke="currentColor" stroke-width="2" stroke-linecap="round"/>
  <path d="M7 10C7 10 9 12 12 12C15 12 17 10 17 10" stroke="currentColor" stroke-width="2" stroke-linecap="round"/>
  <path d="M12 12C13.3333 12 16 13 16 16" stroke="currentColor" stroke-width="2" stroke-linecap="round"/>
  <path d="M12 12C10.6667 12 8 13 8 16" stroke="currentColor" stroke-width="2" stroke-linecap="round"/>
</svg>