<?xml version="1.0" encoding="UTF-8"?>
<svg width="24" height="24" viewBox="0 0 24 24" fill="none" xmlns="http://www.w3.org/2000/svg">
  <path d="M10 16C11.5 16 12 17 12 18C12 19 11.5 20 9 20C6.5 20 3 18 3 12C3 6 6 4 8 4C10 4 11 5 11 6C11 7 10 8 8 8C6 8 5 10 5 12C5 14 6 16 8 16" stroke="currentColor" stroke-width="2" stroke-linecap="round" stroke-linejoin="round"/>
  <path d="M14 16C12.5 16 12 17 12 18C12 19 12.5 20 15 20C17.5 20 21 18 21 12C21 6 18 4 16 4C14 4 13 5 13 6C13 7 14 8 16 8C18 8 19 10 19 12C19 14 18 16 16 16" stroke="currentColor" stroke-width="2" stroke-linecap="round" stroke-linejoin="round"/>
</svg>